<svg width="24" height="24" viewBox="0 0 24 24" fill="none" xmlns="http://www.w3.org/2000/svg">
<g id="Carrito">
<path id="Vector" d="M9.55224 21.6699C9.55224 22.9515 8.47761 24 7.16418 24C5.85075 24 4.77612 22.9515 4.77612 21.6699C4.77612 20.3883 5.85075 19.3398 7.16418 19.3398C8.47761 19.3398 9.55224 20.3883 9.55224 21.6699ZM19.1045 19.3398C17.791 19.3398 16.7164 20.3883 16.7164 21.6699C16.7164 22.9515 17.791 24 19.1045 24C20.4179 24 21.4925 22.9515 21.4925 21.6699C21.4925 20.3883 20.4179 19.3398 19.1045 19.3398ZM7.40298 15.6117V15.4951L8.47761 13.5146H17.3134C18.1493 13.5146 18.9851 13.0485 19.3433 12.3495L24 4.19417L21.9701 3.02913L17.3134 11.1845H8.95522L3.9403 0.699029H0V3.02913H2.38806L6.68657 11.8835L5.01493 14.6796C4.89552 15.0291 4.77612 15.3786 4.77612 15.8447C4.77612 17.1262 5.85075 18.1748 7.16418 18.1748H21.4925V15.8447H7.64179C7.52239 15.8447 7.40298 15.7282 7.40298 15.6117ZM20.2985 1.63107L18.6269 0L12.8955 5.59223L9.79104 2.56311L8.1194 4.19417L12.8955 8.85437L20.2985 1.63107Z" fill="#FFFF1A"/>
</g>
</svg>
