<svg width="24" height="27" viewBox="0 0 24 27" fill="none" xmlns="http://www.w3.org/2000/svg">
<path d="M19.4551 26.4167C18.4155 26.4167 17.5318 26.0399 16.8041 25.2865C16.0763 24.533 15.7125 23.6181 15.7125 22.5417C15.7125 22.391 15.7229 22.2347 15.7437 22.0728C15.7645 21.9109 15.7957 21.7658 15.8372 21.6375L7.04219 16.3417C6.68872 16.6646 6.29367 16.9178 5.85704 17.1012C5.42041 17.2846 4.96298 17.3759 4.48476 17.375C3.44516 17.375 2.56149 16.9983 1.83377 16.2448C1.10605 15.4913 0.742188 14.5764 0.742188 13.5C0.742188 12.4236 1.10605 11.5087 1.83377 10.7552C2.56149 10.0017 3.44516 9.62501 4.48476 9.62501C4.96298 9.62501 5.42041 9.71672 5.85704 9.90014C6.29367 10.0836 6.68872 10.3363 7.04219 10.6583L15.8372 5.36251C15.7957 5.23334 15.7645 5.08825 15.7437 4.92722C15.7229 4.76619 15.7125 4.6099 15.7125 4.45834C15.7125 3.38195 16.0763 2.46702 16.8041 1.71355C17.5318 0.96008 18.4155 0.583344 19.4551 0.583344C20.4947 0.583344 21.3783 0.96008 22.106 1.71355C22.8338 2.46702 23.1976 3.38195 23.1976 4.45834C23.1976 5.53473 22.8338 6.44966 22.106 7.20313C21.3783 7.95661 20.4947 8.33334 19.4551 8.33334C18.9768 8.33334 18.5194 8.24207 18.0828 8.05951C17.6461 7.87695 17.2511 7.62379 16.8976 7.30001L8.10258 12.5958C8.14417 12.725 8.17536 12.8705 8.19615 13.0324C8.21694 13.1943 8.22734 13.3502 8.22734 13.5C8.22734 13.6507 8.21694 13.807 8.19615 13.9689C8.17536 14.1308 8.14417 14.2759 8.10258 14.4042L16.8976 19.7C17.2511 19.3771 17.6461 19.1244 18.0828 18.9418C18.5194 18.7592 18.9768 18.6675 19.4551 18.6667C20.4947 18.6667 21.3783 19.0434 22.106 19.7969C22.8338 20.5504 23.1976 21.4653 23.1976 22.5417C23.1976 23.6181 22.8338 24.533 22.106 25.2865C21.3783 26.0399 20.4947 26.4167 19.4551 26.4167Z" fill="black"/>
</svg>
