<svg width="25" height="24" viewBox="0 0 25 24" fill="none" xmlns="http://www.w3.org/2000/svg">
<g clip-path="url(#clip0_100_1959)">
<path d="M24.6857 12C24.6857 5.37262 19.1596 0 12.3429 0C5.52613 0 0 5.37253 0 12C0 17.9895 4.51363 22.954 10.4143 23.8542V15.4688H7.28036V12H10.4143V9.35625C10.4143 6.34875 12.257 4.6875 15.0763 4.6875C16.4268 4.6875 17.8393 4.92188 17.8393 4.92188V7.875H16.2829C14.7495 7.875 14.2714 8.80003 14.2714 9.74906V12H17.6946L17.1474 15.4688H14.2714V23.8542C20.1721 22.954 24.6857 17.9896 24.6857 12Z" fill="#1877F2"/>
<path d="M17.1474 15.4688L17.6947 12H14.2715V9.74906C14.2715 8.79994 14.7497 7.875 16.283 7.875H17.8393V4.92188C17.8393 4.92188 16.4268 4.6875 15.0764 4.6875C12.2571 4.6875 10.4143 6.34875 10.4143 9.35625V12H7.2804V15.4688H10.4143V23.8542C11.0523 23.9514 11.6971 24.0002 12.3429 24C12.9887 24.0002 13.6335 23.9514 14.2715 23.8542V15.4688H17.1474Z" fill="white"/>
</g>
<defs>
<clipPath id="clip0_100_1959">
<rect width="24.6857" height="24" fill="white"/>
</clipPath>
</defs>
</svg>
