<svg width="25" height="25" viewBox="0 0 25 25" fill="none" xmlns="http://www.w3.org/2000/svg">
<path id="Vector" d="M3.90625 0C2.87025 0 1.87668 0.428533 1.14411 1.19133C0.41155 1.95412 0 2.98869 0 4.06744V15.4563C0 16.535 0.41155 17.5696 1.14411 18.3324C1.87668 19.0952 2.87025 19.5237 3.90625 19.5237H5.20833V23.0987C5.20833 24.6465 6.89167 25.5435 8.09792 24.6378L14.9052 19.5237H21.0938C22.1298 19.5237 23.1233 19.0952 23.8559 18.3324C24.5884 17.5696 25 16.535 25 15.4563V4.06744C25 2.98869 24.5884 1.95412 23.8559 1.19133C23.1233 0.428533 22.1298 0 21.0938 0H3.90625Z" fill="#FCD9EC"/>
</svg>
