<svg width="30" height="30" viewBox="0 0 30 30" fill="none" xmlns="http://www.w3.org/2000/svg">
<g id="fluent:filmstrip-play-32-filled">
<path id="Vector" d="M6.09375 3.75C4.97487 3.75 3.90181 4.19447 3.11064 4.98564C2.31947 5.77681 1.875 6.84987 1.875 7.96875V22.0312C1.875 23.1501 2.31947 24.2232 3.11064 25.0144C3.90181 25.8055 4.97487 26.25 6.09375 26.25H23.9062C25.0251 26.25 26.0982 25.8055 26.8894 25.0144C27.6805 24.2232 28.125 23.1501 28.125 22.0312V7.96875C28.125 6.84987 27.6805 5.77681 26.8894 4.98564C26.0982 4.19447 25.0251 3.75 23.9062 3.75H6.09375ZM24.375 7.5C24.6236 7.5 24.8621 7.59877 25.0379 7.77459C25.2137 7.9504 25.3125 8.18886 25.3125 8.4375V10.3125C25.3125 10.5611 25.2137 10.7996 25.0379 10.9754C24.8621 11.1512 24.6236 11.25 24.375 11.25C24.1264 11.25 23.8879 11.1512 23.7121 10.9754C23.5363 10.7996 23.4375 10.5611 23.4375 10.3125V8.4375C23.4375 8.18886 23.5363 7.9504 23.7121 7.77459C23.8879 7.59877 24.1264 7.5 24.375 7.5ZM23.4375 14.0625C23.4375 13.8139 23.5363 13.5754 23.7121 13.3996C23.8879 13.2238 24.1264 13.125 24.375 13.125C24.6236 13.125 24.8621 13.2238 25.0379 13.3996C25.2137 13.5754 25.3125 13.8139 25.3125 14.0625V15.9375C25.3125 16.1861 25.2137 16.4246 25.0379 16.6004C24.8621 16.7762 24.6236 16.875 24.375 16.875C24.1264 16.875 23.8879 16.7762 23.7121 16.6004C23.5363 16.4246 23.4375 16.1861 23.4375 15.9375V14.0625ZM24.375 18.75C24.6236 18.75 24.8621 18.8488 25.0379 19.0246C25.2137 19.2004 25.3125 19.4389 25.3125 19.6875V21.5625C25.3125 21.8111 25.2137 22.0496 25.0379 22.2254C24.8621 22.4012 24.6236 22.5 24.375 22.5C24.1264 22.5 23.8879 22.4012 23.7121 22.2254C23.5363 22.0496 23.4375 21.8111 23.4375 21.5625V19.6875C23.4375 19.4389 23.5363 19.2004 23.7121 19.0246C23.8879 18.8488 24.1264 18.75 24.375 18.75ZM4.6875 8.4375C4.6875 8.18886 4.78627 7.9504 4.96209 7.77459C5.1379 7.59877 5.37636 7.5 5.625 7.5C5.87364 7.5 6.1121 7.59877 6.28791 7.77459C6.46373 7.9504 6.5625 8.18886 6.5625 8.4375V10.3125C6.5625 10.5611 6.46373 10.7996 6.28791 10.9754C6.1121 11.1512 5.87364 11.25 5.625 11.25C5.37636 11.25 5.1379 11.1512 4.96209 10.9754C4.78627 10.7996 4.6875 10.5611 4.6875 10.3125V8.4375ZM5.625 13.125C5.87364 13.125 6.1121 13.2238 6.28791 13.3996C6.46373 13.5754 6.5625 13.8139 6.5625 14.0625V15.9375C6.5625 16.1861 6.46373 16.4246 6.28791 16.6004C6.1121 16.7762 5.87364 16.875 5.625 16.875C5.37636 16.875 5.1379 16.7762 4.96209 16.6004C4.78627 16.4246 4.6875 16.1861 4.6875 15.9375V14.0625C4.6875 13.8139 4.78627 13.5754 4.96209 13.3996C5.1379 13.2238 5.37636 13.125 5.625 13.125ZM4.6875 19.6875C4.6875 19.4389 4.78627 19.2004 4.96209 19.0246C5.1379 18.8488 5.37636 18.75 5.625 18.75C5.87364 18.75 6.1121 18.8488 6.28791 19.0246C6.46373 19.2004 6.5625 19.4389 6.5625 19.6875V21.5625C6.5625 21.8111 6.46373 22.0496 6.28791 22.2254C6.1121 22.4012 5.87364 22.5 5.625 22.5C5.37636 22.5 5.1379 22.4012 4.96209 22.2254C4.78627 22.0496 4.6875 21.8111 4.6875 21.5625V19.6875ZM12.1875 12.2344C12.1875 11.475 13.0106 11.0034 13.665 11.3859L18.915 14.4534C19.0416 14.5273 19.1467 14.6331 19.2197 14.7603C19.2927 14.8874 19.3312 15.0315 19.3312 15.1781C19.3312 15.3247 19.2927 15.4688 19.2197 15.596C19.1467 15.7231 19.0416 15.8289 18.915 15.9028L13.665 18.9703C13.5158 19.0573 13.3463 19.1035 13.1735 19.1041C13.0008 19.1047 12.831 19.0598 12.6811 18.9739C12.5313 18.8879 12.4068 18.764 12.3201 18.6146C12.2335 18.4652 12.1877 18.2955 12.1875 18.1228V12.2334V12.2344Z" fill="#FCD9EC"/>
</g>
</svg>
