<svg width="25" height="24" viewBox="0 0 25 24" fill="none" xmlns="http://www.w3.org/2000/svg">
<g clip-path="url(#clip0_100_1962)">
<path d="M18.9 0H5.78571C2.59035 0 0 2.5184 0 5.625V18.375C0 21.4816 2.59035 24 5.78571 24H18.9C22.0954 24 24.6857 21.4816 24.6857 18.375V5.625C24.6857 2.5184 22.0954 0 18.9 0Z" fill="url(#paint0_radial_100_1962)"/>
<path d="M18.9 0H5.78571C2.59035 0 0 2.5184 0 5.625V18.375C0 21.4816 2.59035 24 5.78571 24H18.9C22.0954 24 24.6857 21.4816 24.6857 18.375V5.625C24.6857 2.5184 22.0954 0 18.9 0Z" fill="url(#paint1_radial_100_1962)"/>
<path d="M12.3437 2.625C9.72487 2.625 9.39614 2.63616 8.36764 2.68163C7.34106 2.72738 6.64031 2.88534 6.02722 3.11719C5.39291 3.35662 4.85494 3.67697 4.31899 4.19822C3.78255 4.71937 3.45306 5.24241 3.20601 5.85881C2.96687 6.45506 2.80419 7.13662 2.758 8.13422C2.712 9.13425 2.69995 9.45394 2.69995 12.0001C2.69995 14.5463 2.71152 14.8648 2.75819 15.8647C2.80544 16.8628 2.96793 17.5441 3.2062 18.1402C3.45267 18.7568 3.78217 19.2799 4.31831 19.8009C4.85417 20.3225 5.39214 20.6436 6.02597 20.883C6.63954 21.1148 7.34038 21.2728 8.36677 21.3186C9.39537 21.364 9.72381 21.3752 12.3425 21.3752C14.9616 21.3752 15.2893 21.364 16.3178 21.3186C17.3444 21.2728 18.0459 21.1148 18.6595 20.883C19.2935 20.6436 19.8307 20.3225 20.3664 19.8009C20.9029 19.2799 21.2323 18.7568 21.4794 18.1404C21.7164 17.5441 21.8792 16.8626 21.9274 15.8649C21.9736 14.865 21.9857 14.5463 21.9857 12.0001C21.9857 9.45394 21.9736 9.13444 21.9274 8.13441C21.8792 7.13634 21.7164 6.45516 21.4794 5.85909C21.2323 5.24241 20.9029 4.71937 20.3664 4.19822C19.8301 3.67678 19.2937 3.35644 18.6589 3.11728C18.0441 2.88534 17.343 2.72728 16.3164 2.68163C15.2878 2.63616 14.9604 2.625 12.3407 2.625H12.3437ZM11.4786 4.31447C11.7354 4.31409 12.0219 4.31447 12.3437 4.31447C14.9184 4.31447 15.2235 4.32347 16.2403 4.36838C17.1804 4.41019 17.6907 4.56291 18.0306 4.69125C18.4807 4.86113 18.8015 5.06428 19.1388 5.3925C19.4763 5.72063 19.6852 6.03309 19.8604 6.47062C19.9924 6.80062 20.1497 7.29675 20.1925 8.21081C20.2387 9.19913 20.2487 9.49594 20.2487 11.9979C20.2487 14.4999 20.2387 14.7968 20.1925 15.7851C20.1495 16.6991 19.9924 17.1952 19.8604 17.5253C19.6857 17.9629 19.4763 18.2744 19.1388 18.6023C18.8013 18.9305 18.4809 19.1335 18.0306 19.3035C17.6911 19.4324 17.1804 19.5848 16.2403 19.6266C15.2237 19.6715 14.9184 19.6812 12.3437 19.6812C9.76884 19.6812 9.46364 19.6715 8.44719 19.6266C7.50701 19.5844 6.99671 19.4317 6.65651 19.3033C6.20658 19.1333 5.88508 18.9303 5.54758 18.6022C5.21008 18.274 5.00122 17.9623 4.82601 17.5246C4.694 17.1945 4.53672 16.6984 4.49391 15.7843C4.44772 14.796 4.43846 14.4992 4.43846 11.9956C4.43846 9.49209 4.44772 9.19678 4.49391 8.20847C4.53692 7.29441 4.694 6.79828 4.82601 6.46781C5.00083 6.03028 5.21008 5.71781 5.54768 5.38969C5.88518 5.06156 6.20658 4.85841 6.65661 4.68816C6.99652 4.55925 7.50701 4.40691 8.44719 4.36491C9.33674 4.32581 9.68148 4.31409 11.4786 4.31212V4.31447ZM17.491 5.87109C16.8522 5.87109 16.3339 6.37453 16.3339 6.99572C16.3339 7.61681 16.8522 8.12072 17.491 8.12072C18.1299 8.12072 18.6482 7.61681 18.6482 6.99572C18.6482 6.37463 18.1299 5.87072 17.491 5.87072V5.87109ZM12.3437 7.18556C9.60896 7.18556 7.39168 9.34125 7.39168 12.0001C7.39168 14.6589 9.60896 16.8136 12.3437 16.8136C15.0785 16.8136 17.295 14.6589 17.295 12.0001C17.295 9.34134 15.0783 7.18556 12.3435 7.18556H12.3437ZM12.3437 8.87503C14.1188 8.87503 15.558 10.2741 15.558 12.0001C15.558 13.7259 14.1188 15.1252 12.3437 15.1252C10.5684 15.1252 9.12942 13.7259 9.12942 12.0001C9.12942 10.2741 10.5684 8.87503 12.3437 8.87503Z" fill="white"/>
</g>
<defs>
<radialGradient id="paint0_radial_100_1962" cx="0" cy="0" r="1" gradientUnits="userSpaceOnUse" gradientTransform="translate(6.55714 25.8485) rotate(-90) scale(23.7858 22.7547)">
<stop stop-color="#FFDD55"/>
<stop offset="0.1" stop-color="#FFDD55"/>
<stop offset="0.5" stop-color="#FF543E"/>
<stop offset="1" stop-color="#C837AB"/>
</radialGradient>
<radialGradient id="paint1_radial_100_1962" cx="0" cy="0" r="1" gradientUnits="userSpaceOnUse" gradientTransform="translate(-4.13495 1.72884) rotate(78.3663) scale(10.6442 45.029)">
<stop stop-color="#3771C8"/>
<stop offset="0.128" stop-color="#3771C8"/>
<stop offset="1" stop-color="#6600FF" stop-opacity="0"/>
</radialGradient>
<clipPath id="clip0_100_1962">
<rect width="24.6857" height="24" fill="white"/>
</clipPath>
</defs>
</svg>
