<svg width="103" height="10" viewBox="0 0 103 10" fill="none" xmlns="http://www.w3.org/2000/svg">
<path d="M8.27832 7.10938C8.27832 7.45312 8.19596 7.73242 8.03125 7.94727C7.86654 8.15495 7.63379 8.32324 7.33301 8.45215C7.08236 8.55957 6.76725 8.64551 6.3877 8.70996C6.00814 8.76725 5.61426 8.81022 5.20605 8.83887C4.79785 8.86035 4.39681 8.87467 4.00293 8.88184C3.60905 8.889 3.27962 8.89258 3.01465 8.89258C2.56348 8.89258 2.11589 8.88542 1.67188 8.87109C1.23503 8.85677 0.791016 8.83529 0.339844 8.80664C0.361328 8.07617 0.339844 7.35286 0.275391 6.63672C0.8125 6.65104 1.34603 6.66536 1.87598 6.67969C2.41309 6.68685 2.9502 6.69759 3.4873 6.71191C3.69499 6.71908 3.90267 6.72624 4.11035 6.7334C4.3252 6.74056 4.54004 6.74414 4.75488 6.74414C4.79069 6.74414 4.8444 6.74414 4.91602 6.74414C4.98763 6.74414 5.06283 6.74056 5.1416 6.7334C5.22038 6.72624 5.29199 6.71549 5.35645 6.70117C5.42806 6.68685 5.48177 6.66536 5.51758 6.63672C5.54622 6.60807 5.56413 6.56868 5.57129 6.51855C5.57845 6.46126 5.58203 6.41113 5.58203 6.36816C5.58203 6.28939 5.57129 6.19629 5.5498 6.08887C5.52832 5.97428 5.49609 5.88118 5.45312 5.80957C5.44596 5.80241 5.4209 5.79525 5.37793 5.78809C5.34212 5.78092 5.29915 5.77734 5.24902 5.77734C5.19889 5.77018 5.15234 5.7666 5.10938 5.7666C5.06641 5.75944 5.04134 5.75586 5.03418 5.75586C4.57585 5.72005 4.11751 5.69499 3.65918 5.68066C3.20801 5.66634 2.75326 5.64128 2.29492 5.60547C2.08724 5.58398 1.8724 5.5625 1.65039 5.54102C1.43555 5.51953 1.23503 5.48014 1.04883 5.42285C0.869792 5.37272 0.71582 5.26172 0.586914 5.08984C0.465169 4.91081 0.364909 4.71029 0.286133 4.48828C0.214518 4.25911 0.160807 4.02995 0.125 3.80078C0.0963542 3.57161 0.0820312 3.37826 0.0820312 3.2207C0.0820312 2.96289 0.107096 2.7194 0.157227 2.49023C0.207357 2.25391 0.286133 2.03548 0.393555 1.83496C0.508138 1.63444 0.651367 1.45898 0.823242 1.30859C0.995117 1.15104 1.20638 1.02214 1.45703 0.921875C1.88672 0.757161 2.34505 0.642578 2.83203 0.578125C3.32617 0.513672 3.79883 0.481445 4.25 0.481445C4.77995 0.481445 5.30273 0.513672 5.81836 0.578125C6.33398 0.642578 6.84961 0.724935 7.36523 0.825195C7.35807 1.03288 7.35091 1.24056 7.34375 1.44824C7.34375 1.64876 7.34375 1.85286 7.34375 2.06055C7.34375 2.26823 7.35449 2.47949 7.37598 2.69434C7.39746 2.90202 7.41895 3.1097 7.44043 3.31738C6.76009 3.33171 6.07975 3.34603 5.39941 3.36035C4.72624 3.36751 4.0459 3.38542 3.3584 3.41406C3.27246 3.41406 3.1543 3.41764 3.00391 3.4248C2.86068 3.43197 2.72103 3.44271 2.58496 3.45703C2.44889 3.46419 2.33073 3.47135 2.23047 3.47852C2.13021 3.48568 2.08008 3.48926 2.08008 3.48926C2.04427 3.56803 2.02279 3.65039 2.01562 3.73633C2.00846 3.8151 2.00488 3.89746 2.00488 3.9834C2.00488 4.02637 2.00488 4.08008 2.00488 4.14453C2.01204 4.20898 2.02995 4.25911 2.05859 4.29492C2.06576 4.30208 2.12663 4.31283 2.24121 4.32715C2.35579 4.34147 2.48112 4.35579 2.61719 4.37012C2.76042 4.38444 2.8929 4.39876 3.01465 4.41309C3.14355 4.42741 3.22233 4.43457 3.25098 4.43457C3.4873 4.45605 3.76302 4.48112 4.07812 4.50977C4.40039 4.53841 4.72624 4.57064 5.05566 4.60645C5.39225 4.64225 5.71452 4.6888 6.02246 4.74609C6.3304 4.79622 6.59896 4.8571 6.82812 4.92871C7.03581 5.00033 7.22559 5.11491 7.39746 5.27246C7.5765 5.42285 7.73047 5.60189 7.85938 5.80957C7.98828 6.01009 8.08854 6.22493 8.16016 6.4541C8.23893 6.67611 8.27832 6.89453 8.27832 7.10938ZM17.3984 5.45508C17.3984 5.86328 17.3877 6.2679 17.3662 6.66895C17.3519 7.06999 17.3161 7.47461 17.2588 7.88281C17.1442 7.96875 17.0296 8.05111 16.915 8.12988C16.8005 8.2015 16.6823 8.28027 16.5605 8.36621C16.4603 8.43066 16.3493 8.50586 16.2275 8.5918C16.113 8.67057 15.9912 8.74935 15.8623 8.82812C15.7334 8.9069 15.6009 8.97493 15.4648 9.03223C15.3359 9.09668 15.2142 9.13965 15.0996 9.16113C14.9922 9.18978 14.849 9.20052 14.6699 9.19336C14.4909 9.19336 14.3405 9.19336 14.2188 9.19336C13.918 9.20768 13.6172 9.21842 13.3164 9.22559C13.0156 9.23275 12.7077 9.23633 12.3926 9.23633C12.2493 9.23633 12.0846 9.23633 11.8984 9.23633C11.7122 9.24349 11.5439 9.22917 11.3936 9.19336C11.3506 9.1862 11.279 9.15039 11.1787 9.08594C11.0785 9.02865 10.9639 8.95703 10.835 8.87109C10.7132 8.77799 10.5843 8.68132 10.4482 8.58105C10.3122 8.47363 10.1797 8.37337 10.0508 8.28027C9.92904 8.18001 9.82161 8.09408 9.72852 8.02246C9.64258 7.94368 9.58171 7.88997 9.5459 7.86133C9.51009 7.48177 9.48145 7.10579 9.45996 6.7334C9.44564 6.35384 9.43848 5.97428 9.43848 5.59473C9.43848 4.8571 9.46354 4.12663 9.51367 3.40332C9.57096 2.68001 9.63184 1.95312 9.69629 1.22266L11.9092 1.16895C11.8376 1.62728 11.7874 2.11426 11.7588 2.62988C11.7301 3.13835 11.7158 3.62891 11.7158 4.10156C11.7158 4.18034 11.7194 4.31999 11.7266 4.52051C11.7337 4.71387 11.748 4.92155 11.7695 5.14355C11.791 5.36556 11.8161 5.56966 11.8447 5.75586C11.8805 5.94206 11.9235 6.0638 11.9736 6.12109C11.9951 6.14258 12.0488 6.16406 12.1348 6.18555C12.2279 6.19987 12.3353 6.21419 12.457 6.22852C12.5859 6.24284 12.722 6.25358 12.8652 6.26074C13.0085 6.2679 13.1445 6.27507 13.2734 6.28223C13.4023 6.28223 13.5169 6.28581 13.6172 6.29297C13.7174 6.29297 13.7891 6.29297 13.832 6.29297C13.8678 6.29297 13.9287 6.29297 14.0146 6.29297C14.1006 6.29297 14.1865 6.29297 14.2725 6.29297C14.3656 6.28581 14.4515 6.27865 14.5303 6.27148C14.609 6.26432 14.6628 6.25 14.6914 6.22852C14.7773 6.17122 14.8418 6.03158 14.8848 5.80957C14.9277 5.58757 14.96 5.34408 14.9814 5.0791C15.0029 4.81413 15.0137 4.5599 15.0137 4.31641C15.0137 4.07292 15.0137 3.89746 15.0137 3.79004C15.0137 3.62533 15.0137 3.46061 15.0137 3.2959C15.0208 3.13118 15.0244 2.96647 15.0244 2.80176C15.0244 2.46517 15.0208 2.13574 15.0137 1.81348C15.0065 1.48405 14.9958 1.15104 14.9814 0.814453C15.1318 0.828776 15.2786 0.839518 15.4219 0.84668C15.5723 0.84668 15.7227 0.84668 15.873 0.84668C16.0521 0.84668 16.2275 0.843099 16.3994 0.835938C16.5785 0.828776 16.7539 0.807292 16.9258 0.771484C17.0762 1.53776 17.1908 2.31478 17.2695 3.10254C17.3555 3.88314 17.3984 4.66732 17.3984 5.45508ZM26.7979 3.60742C26.7979 3.76497 26.7871 3.95475 26.7656 4.17676C26.7513 4.39876 26.7227 4.62435 26.6797 4.85352C26.6439 5.08268 26.5902 5.29753 26.5186 5.49805C26.4469 5.69857 26.3574 5.85612 26.25 5.9707C26.207 6.02083 26.0674 6.07096 25.8311 6.12109C25.6019 6.16406 25.3226 6.21061 24.9932 6.26074C24.6709 6.30371 24.3236 6.34668 23.9512 6.38965C23.5788 6.43262 23.2243 6.47201 22.8877 6.50781C22.5583 6.53646 22.2718 6.56152 22.0283 6.58301C21.7848 6.60449 21.6309 6.61523 21.5664 6.61523L21.4805 8.84961C21.2585 8.86393 21.04 8.86751 20.8252 8.86035C20.6104 8.84603 20.3919 8.83887 20.1699 8.83887C20.0267 8.83887 19.8835 8.84245 19.7402 8.84961C19.597 8.85677 19.4538 8.86751 19.3105 8.88184C19.3105 8.20866 19.3105 7.54264 19.3105 6.88379C19.3105 6.22493 19.2962 5.55892 19.2676 4.88574C19.2461 4.27702 19.2246 3.67188 19.2031 3.07031C19.1888 2.46875 19.1745 1.86361 19.1602 1.25488C19.8978 1.20475 20.639 1.14388 21.3838 1.07227C22.1357 0.99349 22.8841 0.954102 23.6289 0.954102C23.7578 0.954102 23.9619 0.968424 24.2412 0.99707C24.5205 1.01855 24.8141 1.05794 25.1221 1.11523C25.43 1.16536 25.7129 1.22982 25.9707 1.30859C26.2357 1.38737 26.4111 1.47689 26.4971 1.57715C26.5544 1.6416 26.6009 1.76693 26.6367 1.95312C26.6797 2.13932 26.7119 2.33984 26.7334 2.55469C26.7549 2.76237 26.7692 2.96647 26.7764 3.16699C26.7907 3.36751 26.7979 3.51432 26.7979 3.60742ZM23.79 3.53223C23.79 3.46777 23.7865 3.38542 23.7793 3.28516C23.7721 3.1849 23.7578 3.08822 23.7363 2.99512C23.722 2.89486 23.6969 2.80534 23.6611 2.72656C23.6253 2.64062 23.5788 2.57975 23.5215 2.54395C23.4857 2.52246 23.4284 2.50456 23.3496 2.49023C23.2708 2.47591 23.1885 2.46517 23.1025 2.45801C23.0166 2.45085 22.9342 2.44727 22.8555 2.44727C22.7767 2.4401 22.7194 2.43652 22.6836 2.43652C22.4186 2.43652 22.1536 2.45085 21.8887 2.47949C21.6237 2.50814 21.3551 2.54395 21.083 2.58691C21.1045 2.80176 21.1152 3.01302 21.1152 3.2207C21.1224 3.42839 21.126 3.63607 21.126 3.84375C21.126 4.18034 21.1367 4.52051 21.1582 4.86426C21.2513 4.86426 21.4124 4.86068 21.6416 4.85352C21.8708 4.83919 22.1107 4.82129 22.3613 4.7998C22.612 4.77116 22.8483 4.73535 23.0703 4.69238C23.2923 4.64225 23.4427 4.5778 23.5215 4.49902C23.6504 4.37728 23.7256 4.23047 23.7471 4.05859C23.7757 3.87956 23.79 3.7041 23.79 3.53223ZM34.124 2.45801C33.4222 2.49382 32.724 2.5332 32.0293 2.57617C31.3418 2.61198 30.6471 2.65853 29.9453 2.71582L29.9238 3.56445L32.6953 3.40332C32.7311 3.64681 32.7562 3.88672 32.7705 4.12305C32.792 4.35938 32.8027 4.59928 32.8027 4.84277C32.8027 4.94303 32.7992 5.04688 32.792 5.1543C32.792 5.26172 32.792 5.36556 32.792 5.46582L30.2139 5.92773L30.375 7.25977C30.9193 7.22396 31.46 7.17383 31.9971 7.10938C32.5413 7.03776 33.0892 6.97689 33.6406 6.92676C33.6908 7.28483 33.7409 7.64648 33.791 8.01172C33.8411 8.36979 33.9128 8.7207 34.0059 9.06445C32.9889 9.05729 31.9792 9.05729 30.9766 9.06445C29.974 9.07878 28.9642 9.08594 27.9473 9.08594C27.9688 8.24805 27.9938 7.41374 28.0225 6.58301C28.0511 5.75228 28.0654 4.91439 28.0654 4.06934V3.86523C28.0654 3.37826 28.0583 2.89486 28.0439 2.41504C28.0296 1.92806 28.0153 1.4375 28.001 0.943359C28.5667 0.950521 29.1289 0.954102 29.6875 0.954102C30.2533 0.94694 30.8226 0.943359 31.3955 0.943359C31.8324 0.943359 32.2656 0.954102 32.6953 0.975586C33.1322 0.989909 33.569 1.00781 34.0059 1.0293L34.124 2.45801ZM42.8574 3.59668C42.8574 4.18392 42.6784 4.64583 42.3203 4.98242C41.9622 5.31901 41.4896 5.50163 40.9023 5.53027C41.6113 6.71191 42.2308 7.9222 42.7607 9.16113L39.624 9.23633C39.5667 8.65625 39.4808 8.12272 39.3662 7.63574C39.2516 7.14876 39.0905 6.63672 38.8828 6.09961C38.6465 6.11393 38.4102 6.13184 38.1738 6.15332C37.9447 6.1748 37.7155 6.19271 37.4863 6.20703L37.54 8.64551C37.1318 8.66699 36.7236 8.67773 36.3154 8.67773C36.1077 8.67773 35.9036 8.67415 35.7031 8.66699C35.5098 8.65983 35.3128 8.64551 35.1123 8.62402C35.1624 7.96517 35.209 7.3099 35.252 6.6582C35.2949 5.99935 35.32 5.34408 35.3271 4.69238C35.3486 3.53223 35.3809 2.37207 35.4238 1.21191C36.097 1.17611 36.7666 1.13672 37.4326 1.09375C38.1058 1.05078 38.779 1.0293 39.4521 1.0293C39.624 1.0293 39.8102 1.03288 40.0107 1.04004C40.2113 1.0472 40.4118 1.06868 40.6123 1.10449C40.82 1.13314 41.0169 1.17611 41.2031 1.2334C41.3965 1.29069 41.5684 1.36589 41.7188 1.45898C42.084 1.68815 42.3633 1.99609 42.5566 2.38281C42.7572 2.76237 42.8574 3.16699 42.8574 3.59668ZM40.3652 3.4248C40.3652 3.36751 40.3617 3.28874 40.3545 3.18848C40.3545 3.08822 40.3473 2.98796 40.333 2.8877C40.3187 2.78027 40.2972 2.68359 40.2686 2.59766C40.2399 2.50456 40.2005 2.43652 40.1504 2.39355C40.1146 2.36491 40.0537 2.34342 39.9678 2.3291C39.8818 2.31478 39.7887 2.30404 39.6885 2.29688C39.5954 2.28255 39.5023 2.27539 39.4092 2.27539C39.3232 2.26823 39.2624 2.26465 39.2266 2.26465C38.9401 2.26465 38.6572 2.27897 38.3779 2.30762C38.1058 2.33626 37.8337 2.37207 37.5615 2.41504L37.8516 4.49902C38.0091 4.53483 38.1738 4.5599 38.3457 4.57422C38.5176 4.58854 38.6859 4.5957 38.8506 4.5957C38.9222 4.5957 39.026 4.59212 39.1621 4.58496C39.3053 4.5778 39.4486 4.56348 39.5918 4.54199C39.7422 4.52051 39.8783 4.49186 40 4.45605C40.1289 4.41309 40.2184 4.35938 40.2686 4.29492C40.29 4.26628 40.3079 4.21257 40.3223 4.13379C40.3366 4.04785 40.3438 3.96191 40.3438 3.87598C40.3509 3.78288 40.3545 3.69336 40.3545 3.60742C40.3617 3.52148 40.3652 3.46061 40.3652 3.4248ZM53.75 5.29395C53.75 5.46582 53.7428 5.6735 53.7285 5.91699C53.7142 6.16048 53.6891 6.41113 53.6533 6.66895C53.6175 6.92676 53.5674 7.17383 53.5029 7.41016C53.4456 7.64648 53.3704 7.84342 53.2773 8.00098C53.1198 8.27311 52.9229 8.48796 52.6865 8.64551C52.4574 8.7959 52.2067 8.91048 51.9346 8.98926C51.6696 9.06087 51.3903 9.10742 51.0967 9.12891C50.8031 9.15039 50.513 9.16113 50.2266 9.16113C49.9831 9.16113 49.7682 9.15397 49.582 9.13965C49.403 9.12533 49.2275 9.10026 49.0557 9.06445C48.891 9.02865 48.7191 8.97493 48.54 8.90332C48.3682 8.83171 48.1748 8.74219 47.96 8.63477C47.9313 8.29818 47.9134 7.96517 47.9062 7.63574C47.9062 7.29915 47.8991 6.95898 47.8848 6.61523C48.1068 6.65104 48.3073 6.68685 48.4863 6.72266C48.6654 6.75846 48.8408 6.79069 49.0127 6.81934C49.1846 6.84798 49.36 6.87305 49.5391 6.89453C49.7181 6.90885 49.9222 6.91602 50.1514 6.91602C50.2946 6.91602 50.4521 6.90885 50.624 6.89453C50.8031 6.87305 50.9499 6.81576 51.0645 6.72266C51.1361 6.66536 51.1934 6.57227 51.2363 6.44336C51.2793 6.31445 51.3079 6.1748 51.3223 6.02441C51.3438 5.87402 51.3545 5.72721 51.3545 5.58398C51.3617 5.44076 51.3652 5.32617 51.3652 5.24023C51.3652 4.70312 51.3366 4.16602 51.2793 3.62891C51.222 3.0918 51.1504 2.55827 51.0645 2.02832C51.0286 1.82064 50.9964 1.61296 50.9678 1.40527C50.9391 1.19759 50.8926 0.99707 50.8281 0.803711C50.9069 0.810872 50.9857 0.814453 51.0645 0.814453C51.1504 0.814453 51.2399 0.814453 51.333 0.814453C51.6911 0.814453 52.0456 0.807292 52.3965 0.792969C52.7474 0.771484 53.1019 0.735677 53.46 0.685547C53.5387 1.35156 53.5924 2.01042 53.6211 2.66211C53.6569 3.30664 53.6927 3.96191 53.7285 4.62793C53.7357 4.74251 53.7393 4.85352 53.7393 4.96094C53.7464 5.06836 53.75 5.17936 53.75 5.29395ZM63.3105 5.45508C63.3105 5.86328 63.2998 6.2679 63.2783 6.66895C63.264 7.06999 63.2282 7.47461 63.1709 7.88281C63.0563 7.96875 62.9417 8.05111 62.8271 8.12988C62.7126 8.2015 62.5944 8.28027 62.4727 8.36621C62.3724 8.43066 62.2614 8.50586 62.1396 8.5918C62.0251 8.67057 61.9033 8.74935 61.7744 8.82812C61.6455 8.9069 61.513 8.97493 61.377 9.03223C61.248 9.09668 61.1263 9.13965 61.0117 9.16113C60.9043 9.18978 60.7611 9.20052 60.582 9.19336C60.403 9.19336 60.2526 9.19336 60.1309 9.19336C59.8301 9.20768 59.5293 9.21842 59.2285 9.22559C58.9277 9.23275 58.6198 9.23633 58.3047 9.23633C58.1615 9.23633 57.9967 9.23633 57.8105 9.23633C57.6243 9.24349 57.4561 9.22917 57.3057 9.19336C57.2627 9.1862 57.1911 9.15039 57.0908 9.08594C56.9906 9.02865 56.876 8.95703 56.7471 8.87109C56.6253 8.77799 56.4964 8.68132 56.3604 8.58105C56.2243 8.47363 56.0918 8.37337 55.9629 8.28027C55.8411 8.18001 55.7337 8.09408 55.6406 8.02246C55.5547 7.94368 55.4938 7.88997 55.458 7.86133C55.4222 7.48177 55.3936 7.10579 55.3721 6.7334C55.3577 6.35384 55.3506 5.97428 55.3506 5.59473C55.3506 4.8571 55.3757 4.12663 55.4258 3.40332C55.4831 2.68001 55.5439 1.95312 55.6084 1.22266L57.8213 1.16895C57.7497 1.62728 57.6995 2.11426 57.6709 2.62988C57.6423 3.13835 57.6279 3.62891 57.6279 4.10156C57.6279 4.18034 57.6315 4.31999 57.6387 4.52051C57.6458 4.71387 57.6602 4.92155 57.6816 5.14355C57.7031 5.36556 57.7282 5.56966 57.7568 5.75586C57.7926 5.94206 57.8356 6.0638 57.8857 6.12109C57.9072 6.14258 57.9609 6.16406 58.0469 6.18555C58.14 6.19987 58.2474 6.21419 58.3691 6.22852C58.498 6.24284 58.6341 6.25358 58.7773 6.26074C58.9206 6.2679 59.0566 6.27507 59.1855 6.28223C59.3145 6.28223 59.429 6.28581 59.5293 6.29297C59.6296 6.29297 59.7012 6.29297 59.7441 6.29297C59.7799 6.29297 59.8408 6.29297 59.9268 6.29297C60.0127 6.29297 60.0986 6.29297 60.1846 6.29297C60.2777 6.28581 60.3636 6.27865 60.4424 6.27148C60.5212 6.26432 60.5749 6.25 60.6035 6.22852C60.6895 6.17122 60.7539 6.03158 60.7969 5.80957C60.8398 5.58757 60.8721 5.34408 60.8936 5.0791C60.915 4.81413 60.9258 4.5599 60.9258 4.31641C60.9258 4.07292 60.9258 3.89746 60.9258 3.79004C60.9258 3.62533 60.9258 3.46061 60.9258 3.2959C60.9329 3.13118 60.9365 2.96647 60.9365 2.80176C60.9365 2.46517 60.9329 2.13574 60.9258 1.81348C60.9186 1.48405 60.9079 1.15104 60.8936 0.814453C61.0439 0.828776 61.1908 0.839518 61.334 0.84668C61.4844 0.84668 61.6348 0.84668 61.7852 0.84668C61.9642 0.84668 62.1396 0.843099 62.3115 0.835938C62.4906 0.828776 62.666 0.807292 62.8379 0.771484C62.9883 1.53776 63.1029 2.31478 63.1816 3.10254C63.2676 3.88314 63.3105 4.66732 63.3105 5.45508ZM70.916 2.45801C70.2142 2.49382 69.516 2.5332 68.8213 2.57617C68.1338 2.61198 67.4391 2.65853 66.7373 2.71582L66.7158 3.56445L69.4873 3.40332C69.5231 3.64681 69.5482 3.88672 69.5625 4.12305C69.584 4.35938 69.5947 4.59928 69.5947 4.84277C69.5947 4.94303 69.5911 5.04688 69.584 5.1543C69.584 5.26172 69.584 5.36556 69.584 5.46582L67.0059 5.92773L67.167 7.25977C67.7113 7.22396 68.252 7.17383 68.7891 7.10938C69.3333 7.03776 69.8812 6.97689 70.4326 6.92676C70.4827 7.28483 70.5329 7.64648 70.583 8.01172C70.6331 8.36979 70.7048 8.7207 70.7979 9.06445C69.7809 9.05729 68.7712 9.05729 67.7686 9.06445C66.766 9.07878 65.7562 9.08594 64.7393 9.08594C64.7607 8.24805 64.7858 7.41374 64.8145 6.58301C64.8431 5.75228 64.8574 4.91439 64.8574 4.06934V3.86523C64.8574 3.37826 64.8503 2.89486 64.8359 2.41504C64.8216 1.92806 64.8073 1.4375 64.793 0.943359C65.3587 0.950521 65.9209 0.954102 66.4795 0.954102C67.0452 0.94694 67.6146 0.943359 68.1875 0.943359C68.6243 0.943359 69.0576 0.954102 69.4873 0.975586C69.9242 0.989909 70.361 1.00781 70.7979 1.0293L70.916 2.45801ZM78.9082 9.17188C78.0417 9.15755 77.1536 9.13607 76.2441 9.10742C75.3418 9.07878 74.4574 9.01432 73.5908 8.91406C73.4906 8.89974 73.376 8.889 73.2471 8.88184C73.1253 8.86751 73.0143 8.84245 72.9141 8.80664C72.7064 8.72786 72.5417 8.64193 72.4199 8.54883C72.3053 8.44857 72.2158 8.33757 72.1514 8.21582C72.0869 8.08691 72.0404 7.94727 72.0117 7.79688C71.9831 7.63932 71.958 7.46387 71.9365 7.27051C71.8721 6.76921 71.8219 6.2679 71.7861 5.7666C71.7503 5.25814 71.7324 4.74967 71.7324 4.24121C71.7324 4.14811 71.7324 4.03711 71.7324 3.9082C71.7396 3.77214 71.7467 3.63249 71.7539 3.48926C71.7682 3.34603 71.7861 3.20996 71.8076 3.08105C71.8291 2.95215 71.8577 2.84473 71.8936 2.75879C72.0654 2.38639 72.3161 2.08919 72.6455 1.86719C72.9821 1.63802 73.3509 1.46257 73.752 1.34082C74.153 1.21191 74.5648 1.12956 74.9873 1.09375C75.417 1.05078 75.8109 1.0293 76.1689 1.0293C76.9352 1.0293 77.7015 1.10449 78.4678 1.25488L78.5537 3.55371C77.8232 3.32454 77.0677 3.20996 76.2871 3.20996C76.1439 3.20996 75.9541 3.21712 75.7178 3.23145C75.4814 3.24577 75.238 3.27441 74.9873 3.31738C74.7438 3.35319 74.5146 3.41048 74.2998 3.48926C74.085 3.56087 73.9346 3.66113 73.8486 3.79004C73.8057 3.85449 73.7663 3.94401 73.7305 4.05859C73.7018 4.17318 73.6768 4.29492 73.6553 4.42383C73.641 4.54557 73.6302 4.66732 73.623 4.78906C73.6159 4.91081 73.6123 5.01107 73.6123 5.08984C73.6123 5.25456 73.623 5.4515 73.6445 5.68066C73.6732 5.90267 73.7054 6.13184 73.7412 6.36816C73.777 6.60449 73.82 6.83008 73.8701 7.04492C73.9202 7.25977 73.974 7.43522 74.0312 7.57129H75.9326L75.8359 5.49805C76.3301 5.53385 76.8242 5.55176 77.3184 5.55176C77.8197 5.5446 78.3174 5.54102 78.8115 5.54102C78.8617 6.14974 78.8903 6.75488 78.8975 7.35645C78.9046 7.95801 78.9082 8.56315 78.9082 9.17188ZM89.2422 4.41309C89.2422 4.50618 89.2422 4.59928 89.2422 4.69238C89.2422 4.77832 89.2386 4.86426 89.2314 4.9502C89.2243 5.02181 89.2135 5.14714 89.1992 5.32617C89.1921 5.50521 89.1777 5.71289 89.1562 5.94922C89.1419 6.17839 89.1204 6.42188 89.0918 6.67969C89.0703 6.9375 89.0417 7.17741 89.0059 7.39941C88.9772 7.61426 88.945 7.80046 88.9092 7.95801C88.8734 8.11556 88.8376 8.21224 88.8018 8.24805C88.5869 8.46289 88.3291 8.62402 88.0283 8.73145C87.7347 8.83171 87.4268 8.89974 87.1045 8.93555C86.7822 8.97135 86.46 8.98568 86.1377 8.97852C85.8154 8.97135 85.5146 8.96777 85.2354 8.96777C85.1423 8.96777 84.9847 8.96777 84.7627 8.96777C84.5407 8.96061 84.2865 8.95345 84 8.94629C83.7207 8.93913 83.4271 8.92839 83.1191 8.91406C82.8112 8.89258 82.5212 8.86751 82.249 8.83887C81.984 8.80306 81.7513 8.76367 81.5508 8.7207C81.3574 8.67057 81.2357 8.6097 81.1855 8.53809C81.1283 8.45931 81.0781 8.37337 81.0352 8.28027C80.9922 8.18717 80.9528 8.09766 80.917 8.01172C80.8239 7.77539 80.738 7.52474 80.6592 7.25977C80.5804 6.98763 80.5124 6.71191 80.4551 6.43262C80.4049 6.14616 80.362 5.86328 80.3262 5.58398C80.2975 5.30469 80.2832 5.03971 80.2832 4.78906C80.2832 4.65299 80.2939 4.47754 80.3154 4.2627C80.3369 4.04069 80.3656 3.80436 80.4014 3.55371C80.4372 3.2959 80.4801 3.03451 80.5303 2.76953C80.5804 2.50456 80.6341 2.25749 80.6914 2.02832C80.7559 1.79915 80.8239 1.60221 80.8955 1.4375C80.9671 1.26562 81.0459 1.15104 81.1318 1.09375C81.2035 1.04362 81.3359 0.99707 81.5293 0.954102C81.7227 0.911133 81.9482 0.875326 82.2061 0.84668C82.4639 0.810872 82.7396 0.782227 83.0332 0.760742C83.3268 0.732096 83.6061 0.710612 83.8711 0.696289C84.1361 0.674805 84.376 0.660482 84.5908 0.65332C84.8057 0.646159 84.9632 0.642578 85.0635 0.642578C85.1995 0.642578 85.3822 0.64974 85.6113 0.664062C85.8477 0.678385 86.1019 0.703451 86.374 0.739258C86.6462 0.767904 86.9219 0.807292 87.2012 0.857422C87.4805 0.900391 87.7383 0.954102 87.9746 1.01855C88.2181 1.08301 88.4258 1.15462 88.5977 1.2334C88.7695 1.31217 88.877 1.39811 88.9199 1.49121C88.9557 1.56999 88.988 1.68457 89.0166 1.83496C89.0524 1.97819 89.0811 2.1429 89.1025 2.3291C89.124 2.5153 89.1419 2.71224 89.1562 2.91992C89.1777 3.1276 89.1921 3.32812 89.1992 3.52148C89.2135 3.70768 89.2243 3.87956 89.2314 4.03711C89.2386 4.19466 89.2422 4.31999 89.2422 4.41309ZM87.3193 4.76758C87.3193 4.62435 87.3122 4.47396 87.2979 4.31641C87.2835 4.15169 87.237 4.00846 87.1582 3.88672C87.1009 3.80078 86.9613 3.73275 86.7393 3.68262C86.5244 3.63249 86.2845 3.59668 86.0195 3.5752C85.7617 3.55371 85.5111 3.54297 85.2676 3.54297C85.0241 3.53581 84.8522 3.53223 84.752 3.53223C84.6732 3.53223 84.5335 3.53939 84.333 3.55371C84.1396 3.56803 83.932 3.5931 83.71 3.62891C83.4951 3.65755 83.2946 3.69694 83.1084 3.74707C82.9222 3.79004 82.8076 3.84375 82.7646 3.9082C82.7217 3.95833 82.6859 4.05501 82.6572 4.19824C82.6357 4.33431 82.6143 4.4847 82.5928 4.64941C82.5785 4.80697 82.5677 4.96094 82.5605 5.11133C82.5534 5.25456 82.5498 5.3584 82.5498 5.42285C82.5498 5.48014 82.5498 5.56608 82.5498 5.68066C82.557 5.79525 82.5677 5.91341 82.582 6.03516C82.5964 6.1569 82.6107 6.27148 82.625 6.37891C82.6465 6.48633 82.6751 6.5651 82.7109 6.61523C82.7324 6.65104 82.7969 6.68327 82.9043 6.71191C83.0117 6.74056 83.1406 6.76921 83.291 6.79785C83.4486 6.81934 83.6133 6.83724 83.7852 6.85156C83.957 6.86589 84.1217 6.88021 84.2793 6.89453C84.444 6.90169 84.5872 6.90885 84.709 6.91602C84.8379 6.91602 84.9274 6.91602 84.9775 6.91602C85.0635 6.91602 85.2103 6.90885 85.418 6.89453C85.6328 6.88021 85.8548 6.85872 86.084 6.83008C86.3203 6.79427 86.5352 6.75488 86.7285 6.71191C86.929 6.66178 87.0579 6.60449 87.1152 6.54004C87.1582 6.48991 87.194 6.38607 87.2227 6.22852C87.2513 6.0638 87.2728 5.88835 87.2871 5.70215C87.3014 5.50879 87.3086 5.32617 87.3086 5.1543C87.3158 4.97526 87.3193 4.84635 87.3193 4.76758ZM98.749 7.10938C98.749 7.45312 98.6667 7.73242 98.502 7.94727C98.3372 8.15495 98.1045 8.32324 97.8037 8.45215C97.5531 8.55957 97.238 8.64551 96.8584 8.70996C96.4788 8.76725 96.085 8.81022 95.6768 8.83887C95.2686 8.86035 94.8675 8.87467 94.4736 8.88184C94.0798 8.889 93.7503 8.89258 93.4854 8.89258C93.0342 8.89258 92.5866 8.88542 92.1426 8.87109C91.7057 8.85677 91.2617 8.83529 90.8105 8.80664C90.832 8.07617 90.8105 7.35286 90.7461 6.63672C91.2832 6.65104 91.8167 6.66536 92.3467 6.67969C92.8838 6.68685 93.4209 6.69759 93.958 6.71191C94.1657 6.71908 94.3734 6.72624 94.5811 6.7334C94.7959 6.74056 95.0107 6.74414 95.2256 6.74414C95.2614 6.74414 95.3151 6.74414 95.3867 6.74414C95.4583 6.74414 95.5335 6.74056 95.6123 6.7334C95.6911 6.72624 95.7627 6.71549 95.8271 6.70117C95.8988 6.68685 95.9525 6.66536 95.9883 6.63672C96.0169 6.60807 96.0348 6.56868 96.042 6.51855C96.0492 6.46126 96.0527 6.41113 96.0527 6.36816C96.0527 6.28939 96.042 6.19629 96.0205 6.08887C95.999 5.97428 95.9668 5.88118 95.9238 5.80957C95.9167 5.80241 95.8916 5.79525 95.8486 5.78809C95.8128 5.78092 95.7699 5.77734 95.7197 5.77734C95.6696 5.77018 95.623 5.7666 95.5801 5.7666C95.5371 5.75944 95.512 5.75586 95.5049 5.75586C95.0465 5.72005 94.5882 5.69499 94.1299 5.68066C93.6787 5.66634 93.224 5.64128 92.7656 5.60547C92.5579 5.58398 92.3431 5.5625 92.1211 5.54102C91.9062 5.51953 91.7057 5.48014 91.5195 5.42285C91.3405 5.37272 91.1865 5.26172 91.0576 5.08984C90.9359 4.91081 90.8356 4.71029 90.7568 4.48828C90.6852 4.25911 90.6315 4.02995 90.5957 3.80078C90.5671 3.57161 90.5527 3.37826 90.5527 3.2207C90.5527 2.96289 90.5778 2.7194 90.6279 2.49023C90.6781 2.25391 90.7568 2.03548 90.8643 1.83496C90.9788 1.63444 91.1221 1.45898 91.2939 1.30859C91.4658 1.15104 91.6771 1.02214 91.9277 0.921875C92.3574 0.757161 92.8158 0.642578 93.3027 0.578125C93.7969 0.513672 94.2695 0.481445 94.7207 0.481445C95.2507 0.481445 95.7734 0.513672 96.2891 0.578125C96.8047 0.642578 97.3203 0.724935 97.8359 0.825195C97.8288 1.03288 97.8216 1.24056 97.8145 1.44824C97.8145 1.64876 97.8145 1.85286 97.8145 2.06055C97.8145 2.26823 97.8252 2.47949 97.8467 2.69434C97.8682 2.90202 97.8896 3.1097 97.9111 3.31738C97.2308 3.33171 96.5505 3.34603 95.8701 3.36035C95.1969 3.36751 94.5166 3.38542 93.8291 3.41406C93.7432 3.41406 93.625 3.41764 93.4746 3.4248C93.3314 3.43197 93.1917 3.44271 93.0557 3.45703C92.9196 3.46419 92.8014 3.47135 92.7012 3.47852C92.6009 3.48568 92.5508 3.48926 92.5508 3.48926C92.515 3.56803 92.4935 3.65039 92.4863 3.73633C92.4792 3.8151 92.4756 3.89746 92.4756 3.9834C92.4756 4.02637 92.4756 4.08008 92.4756 4.14453C92.4827 4.20898 92.5007 4.25911 92.5293 4.29492C92.5365 4.30208 92.5973 4.31283 92.7119 4.32715C92.8265 4.34147 92.9518 4.35579 93.0879 4.37012C93.2311 4.38444 93.3636 4.39876 93.4854 4.41309C93.6143 4.42741 93.693 4.43457 93.7217 4.43457C93.958 4.45605 94.2337 4.48112 94.5488 4.50977C94.8711 4.53841 95.1969 4.57064 95.5264 4.60645C95.863 4.64225 96.1852 4.6888 96.4932 4.74609C96.8011 4.79622 97.0697 4.8571 97.2988 4.92871C97.5065 5.00033 97.6963 5.11491 97.8682 5.27246C98.0472 5.42285 98.2012 5.60189 98.3301 5.80957C98.459 6.01009 98.5592 6.22493 98.6309 6.4541C98.7096 6.67611 98.749 6.89453 98.749 7.10938ZM102.24 0.739258C102.233 0.925456 102.222 1.12956 102.208 1.35156C102.201 1.57357 102.19 1.79915 102.176 2.02832C102.161 2.25749 102.14 2.48307 102.111 2.70508C102.09 2.91992 102.061 3.12044 102.025 3.30664C101.918 3.84375 101.807 4.3737 101.692 4.89648C101.585 5.41927 101.478 5.94922 101.37 6.48633L100.188 6.59375L99.9199 3.88672C99.8698 3.39974 99.834 2.91276 99.8125 2.42578C99.791 1.93164 99.766 1.4375 99.7373 0.943359L102.24 0.739258ZM102.047 8.14062C102.047 8.26237 102.007 8.38411 101.929 8.50586C101.857 8.62044 101.764 8.72428 101.649 8.81738C101.535 8.91048 101.41 8.9821 101.273 9.03223C101.137 9.08952 101.012 9.11816 100.897 9.11816C100.79 9.11816 100.675 9.09668 100.554 9.05371C100.439 9.0179 100.332 8.96777 100.231 8.90332C100.138 8.83171 100.06 8.74577 99.9951 8.64551C99.9378 8.54525 99.9092 8.43066 99.9092 8.30176C99.9092 8.16569 99.9486 8.04395 100.027 7.93652C100.113 7.82194 100.214 7.72884 100.328 7.65723C100.45 7.57845 100.579 7.52116 100.715 7.48535C100.858 7.44238 100.991 7.4209 101.112 7.4209C101.313 7.4209 101.492 7.46745 101.649 7.56055C101.814 7.65365 101.936 7.79329 102.015 7.97949C102.029 8.00814 102.036 8.03678 102.036 8.06543C102.043 8.08691 102.047 8.11198 102.047 8.14062Z" fill="#FFFF1A"/>
</svg>
