<svg width="25" height="24" viewBox="0 0 25 24" fill="none" xmlns="http://www.w3.org/2000/svg">
<g clip-path="url(#clip0_100_1967)">
<path d="M18.9 0H5.78571C2.59035 0 0 2.5184 0 5.625V18.375C0 21.4816 2.59035 24 5.78571 24H18.9C22.0954 24 24.6857 21.4816 24.6857 18.375V5.625C24.6857 2.5184 22.0954 0 18.9 0Z" fill="white"/>
<path d="M18.9 0H5.78571C2.59035 0 0 2.5184 0 5.625V18.375C0 21.4816 2.59035 24 5.78571 24H18.9C22.0954 24 24.6857 21.4816 24.6857 18.375V5.625C24.6857 2.5184 22.0954 0 18.9 0Z" fill="#1D9BF0"/>
<path d="M19.2445 8.56978C19.2551 8.71856 19.2551 8.86734 19.2551 9.01753C19.2551 13.5922 15.6729 18.8683 9.12284 18.8683V18.8655C7.18782 18.8682 5.29289 18.3294 3.66431 17.3135C3.94569 17.3464 4.22841 17.3628 4.51191 17.3634C6.11568 17.3647 7.67331 16.8417 8.93451 15.8785C8.19143 15.8649 7.47131 15.6258 6.87484 15.1947C6.27836 14.7637 5.83535 14.1622 5.60773 13.4743C6.14124 13.5743 6.69126 13.5539 7.21538 13.4147C5.55411 13.0883 4.35888 11.6692 4.35888 10.0211V9.97725C4.85413 10.2454 5.40839 10.394 5.97502 10.4106C4.41037 9.39384 3.92804 7.37006 4.87285 5.78775C5.76686 6.85734 6.88231 7.73212 8.14674 8.35528C9.41117 8.97843 10.7963 9.33602 12.2121 9.40481C12.071 8.81403 12.0918 8.19758 12.2726 7.61709C12.4534 7.03661 12.7877 6.51245 13.2423 6.09703C14.6765 4.78621 16.9323 4.85343 18.2806 6.24712C19.078 6.09405 19.8428 5.80981 20.5419 5.40665C20.2761 6.20827 19.7198 6.88872 18.9765 7.3214C19.6824 7.24054 20.3718 7.05683 21.0214 6.77643C20.5436 7.47224 19.9418 8.07948 19.2445 8.56978Z" fill="white"/>
</g>
<defs>
<clipPath id="clip0_100_1967">
<rect width="24.6857" height="24" fill="white"/>
</clipPath>
</defs>
</svg>
