<svg width="23" height="43" viewBox="0 0 23 43" fill="none" xmlns="http://www.w3.org/2000/svg">
<path d="M22.4469 39.236C23.3717 40.2297 23.0583 41.704 21.8855 42.3515C21.5068 42.5632 21.0792 42.6719 20.6455 42.6667C19.96 42.6667 19.2918 42.4066 18.8406 41.9124L1.32558 23.0127C0.981209 22.6519 0.789062 22.1724 0.789062 21.6737C0.789062 21.1749 0.981209 20.6954 1.32558 20.3346L18.8457 1.48836C19.6001 0.682357 20.909 0.517024 21.8889 1.0578C23.0617 1.70708 23.3752 3.17613 22.4486 4.17158L6.18052 21.6762L22.4486 39.236H22.4469ZM3.13736 21.337C3.21469 21.4321 3.25691 21.551 3.25691 21.6737C3.25691 21.7963 3.21469 21.9152 3.13736 22.0104L3.4508 21.6745L3.13736 21.337ZM20.6971 3.21747C20.6799 3.20713 20.6059 3.21747 20.6472 3.17097C20.659 3.19095 20.6764 3.2071 20.6971 3.21747ZM20.6541 40.2435C20.6506 40.2389 20.6472 40.2344 20.6437 40.2297L20.6541 40.2435Z" fill="#ED0080"/>
</svg>
