<svg width="24" height="24" viewBox="0 0 24 24" fill="none" xmlns="http://www.w3.org/2000/svg">
<g id="mdi:user-outline">
<path id="Vector" d="M12.5 3C13.7598 3 14.968 3.50044 15.8588 4.39124C16.7496 5.28204 17.25 6.49022 17.25 7.75C17.25 9.00978 16.7496 10.218 15.8588 11.1088C14.968 11.9996 13.7598 12.5 12.5 12.5C11.2402 12.5 10.032 11.9996 9.14124 11.1088C8.25044 10.218 7.75 9.00978 7.75 7.75C7.75 6.49022 8.25044 5.28204 9.14124 4.39124C10.032 3.50044 11.2402 3 12.5 3ZM12.5 5.375C11.8701 5.375 11.266 5.62522 10.8206 6.07062C10.3752 6.51602 10.125 7.12011 10.125 7.75C10.125 8.37989 10.3752 8.98398 10.8206 9.42938C11.266 9.87478 11.8701 10.125 12.5 10.125C13.1299 10.125 13.734 9.87478 14.1794 9.42938C14.6248 8.98398 14.875 8.37989 14.875 7.75C14.875 7.12011 14.6248 6.51602 14.1794 6.07062C13.734 5.62522 13.1299 5.375 12.5 5.375ZM12.5 13.6875C15.6706 13.6875 22 15.2669 22 18.4375V22H3V18.4375C3 15.2669 9.32937 13.6875 12.5 13.6875ZM12.5 15.9437C8.97312 15.9437 5.25625 17.6775 5.25625 18.4375V19.7437H19.7437V18.4375C19.7437 17.6775 16.0269 15.9437 12.5 15.9437Z" fill="#FFFF1A"/>
</g>
</svg>
