<svg width="24" height="24" viewBox="0 0 24 24" fill="none" xmlns="http://www.w3.org/2000/svg">
<g id="iconoNuevos">
<path id="Vector" d="M5.76314 18.8155H13.3423C13.6623 18.8156 13.9704 18.9448 14.2043 19.177C14.4381 19.4091 14.5803 19.727 14.6021 20.0663C14.6239 20.4056 14.5237 20.741 14.3218 21.0048C14.1198 21.2686 13.8311 21.4411 13.5141 21.4875L13.3423 21.5H5.76314C5.44309 21.4999 5.13501 21.3707 4.90115 21.1385C4.66729 20.9064 4.52509 20.5885 4.50328 20.2492C4.48146 19.91 4.58166 19.5745 4.78363 19.3107C4.9856 19.0469 5.27429 18.8744 5.59135 18.828L5.76314 18.8155ZM8.23899 8.47126C8.45308 8.24421 8.73674 8.10633 9.0384 8.08268C9.34006 8.05904 9.63969 8.15119 9.88282 8.3424L10.0243 8.47305L15.9192 14.7369C16.1431 14.9767 16.2737 15.2974 16.2849 15.635C16.2961 15.9726 16.187 16.3023 15.9795 16.5583C15.772 16.8143 15.4813 16.9777 15.1654 17.0159C14.8495 17.0541 14.5317 16.9644 14.2753 16.7646L14.1339 16.6339L8.23899 10.3701C8.00243 10.1184 7.86956 9.77727 7.86956 9.42157C7.86956 9.06587 8.00243 8.72293 8.23899 8.47126ZM19.2371 4.5C19.5424 4.50001 19.8373 4.61748 20.0674 4.83067C20.2974 5.04386 20.447 5.33836 20.4885 5.6597L20.5003 5.84225V13.8957C20.5002 14.2358 20.3787 14.5632 20.1602 14.8117C19.9417 15.0602 19.6425 15.2113 19.3232 15.2344C19.0039 15.2576 18.6883 15.1511 18.44 14.9365C18.1917 14.7219 18.0294 14.4152 17.9857 14.0783L17.974 13.8957V5.84225C17.974 5.48626 18.107 5.14485 18.3439 4.89313C18.5808 4.64141 18.9021 4.5 19.2371 4.5Z" fill="#FFFF1A"/>
</g>
</svg>
