<svg width="24" height="24" viewBox="0 0 24 24" fill="none" xmlns="http://www.w3.org/2000/svg">
<g id="game-icons:crossed-swords">
<path id="Vector" d="M0.925781 0.676774C3.71662 5.94037 7.60594 10.1619 11.8139 14.3979L11.9839 14.5737L11.9868 14.5708C13.01 15.5988 14.0512 16.6297 15.0996 17.6763C14.2157 18.3706 13.2727 18.9981 12.29 19.5659L13.6274 20.9032L16.8485 17.6821C18.8331 18.9776 20.4244 20.6655 21.7279 22.642L23.0434 21.3267C21.0526 20.0379 19.3056 18.5045 18.0733 16.4575L21.3046 13.226L19.9673 11.8887C19.4463 12.913 18.8229 13.8581 18.1171 14.729C16.0616 12.6758 14.0642 10.7051 12.0175 8.84756C12.007 8.83804 11.9973 8.82777 11.9868 8.81826C8.60738 5.7539 5.08664 2.99582 0.925781 0.676774ZM23.0449 0.676774C19.1525 2.84615 15.8205 5.40084 12.6401 8.23096L13.7095 9.24168L16.3725 6.57862L16.9921 7.19676L14.3466 9.84238L15.4995 10.9292C18.3964 7.79235 21.012 4.51115 23.0449 0.676774ZM7.5982 6.57862L16.9995 15.9785C16.7948 16.1869 16.5852 16.3906 16.3711 16.5893L6.97852 7.19671L7.5982 6.57862ZM4.00336 11.8886L2.66742 13.2261L5.89744 16.456C4.66509 18.5032 2.91947 20.0379 0.928688 21.3267L2.24414 22.642C3.54759 20.6655 5.13905 18.9776 7.12355 17.6821L10.3447 20.9032L11.682 19.5659C10.6995 18.9981 9.75642 18.3706 8.8725 17.6762C9.70992 16.8404 10.5417 16.0153 11.3642 15.1933L10.1997 13.9907L7.59956 16.5907C7.38558 16.392 7.17703 16.1866 6.97266 15.9784L9.59034 13.3607L8.4405 12.1713C7.58362 13.0083 6.72478 13.8616 5.85497 14.7304C5.14866 13.8591 4.52461 12.9136 4.00336 11.8886Z" fill="#FFFF1A"/>
</g>
</svg>
