<svg width="24" height="22" viewBox="0 0 24 22" fill="none" xmlns="http://www.w3.org/2000/svg">
<g id="iconamoon:home-bold">
<path id="Vector" d="M20.25 9.34811C20.25 9.20456 20.2177 9.06242 20.1549 8.9298C20.0921 8.79719 20 8.67668 19.8839 8.57518C19.7679 8.47368 19.6301 8.39316 19.4784 8.33823C19.3267 8.2833 19.1642 8.25503 19 8.25503C18.8359 8.25503 18.6733 8.2833 18.5217 8.33823C18.37 8.39316 18.2322 8.47368 18.1162 8.57518C18.0001 8.67668 17.908 8.79719 17.8452 8.9298C17.7824 9.06242 17.75 9.20456 17.75 9.34811H20.25ZM6.25004 9.34811C6.25004 9.05821 6.11835 8.78018 5.88393 8.57518C5.64951 8.37019 5.33156 8.25503 5.00004 8.25503C4.66852 8.25503 4.35058 8.37019 4.11616 8.57518C3.88174 8.78018 3.75004 9.05821 3.75004 9.34811H6.25004ZM20.116 11.8701C20.3505 12.0751 20.6685 12.1903 21 12.1903C21.3316 12.1903 21.6496 12.0751 21.884 11.8701C22.1185 11.6651 22.2502 11.387 22.2502 11.097C22.2502 10.8071 22.1185 10.529 21.884 10.324L20.116 11.8701ZM12 3.22683L12.884 2.4538C12.768 2.35227 12.6302 2.27173 12.4785 2.21678C12.3268 2.16183 12.1642 2.13354 12 2.13354C11.8359 2.13354 11.6733 2.16183 11.5216 2.21678C11.3699 2.27173 11.2321 2.35227 11.116 2.4538L12 3.22683ZM2.11604 10.324C1.88159 10.529 1.74988 10.8071 1.74988 11.097C1.74988 11.387 1.88159 11.6651 2.11604 11.8701C2.35049 12.0751 2.66848 12.1903 3.00004 12.1903C3.33161 12.1903 3.64959 12.0751 3.88404 11.8701L2.11604 10.324ZM7.00004 20.0603H17V17.8742H7.00004V20.0603ZM20.25 17.2183V9.34811H17.75V17.2183H20.25ZM6.25004 17.2183V9.34811H3.75004V17.2183H6.25004ZM21.884 10.324L12.884 2.4538L11.116 3.99986L20.116 11.8701L21.884 10.324ZM11.116 2.4538L2.11604 10.324L3.88404 11.8701L12.884 3.99986L11.116 2.4538ZM17 20.0603C17.862 20.0603 18.6886 19.7609 19.2981 19.2279C19.9076 18.695 20.25 17.9721 20.25 17.2183H17.75C17.75 17.3923 17.671 17.5591 17.5304 17.6821C17.3897 17.8051 17.199 17.8742 17 17.8742V20.0603ZM7.00004 17.8742C6.80113 17.8742 6.61036 17.8051 6.46971 17.6821C6.32906 17.5591 6.25004 17.3923 6.25004 17.2183H3.75004C3.75004 17.9721 4.09245 18.695 4.70195 19.2279C5.31144 19.7609 6.13809 20.0603 7.00004 20.0603V17.8742Z" fill="#FFFF1A"/>
</g>
</svg>
