<svg width="24" height="24" viewBox="0 0 24 24" fill="none" xmlns="http://www.w3.org/2000/svg">
<g id="ph:star-fill">
<path id="Vector" d="M21.5253 11.6547L17.7024 15.1173L18.8476 20.2725C18.9082 20.542 18.8909 20.8241 18.7979 21.0835C18.7049 21.3428 18.5402 21.568 18.3246 21.7307C18.109 21.8935 17.8519 21.9867 17.5855 21.9987C17.3191 22.0106 17.0552 21.9408 16.8268 21.798L12.4945 19.0708L8.1715 21.798C7.94312 21.9408 7.67923 22.0106 7.41284 21.9987C7.14644 21.9867 6.88935 21.8935 6.67371 21.7307C6.45807 21.568 6.29345 21.3428 6.20043 21.0835C6.10741 20.8241 6.09012 20.542 6.15071 20.2725L7.29419 15.1226L3.47046 11.6547C3.26822 11.4736 3.12198 11.2347 3.05008 10.9677C2.97817 10.7008 2.98381 10.4177 3.06628 10.1541C3.14875 9.89047 3.30438 9.65797 3.51366 9.48577C3.72293 9.31357 3.97654 9.20933 4.24267 9.18612L9.28276 8.73306L11.2501 3.86284C11.3529 3.6073 11.5262 3.38901 11.7482 3.23547C11.9702 3.08193 12.2311 3 12.4979 3C12.7647 3 13.0255 3.08193 13.2476 3.23547C13.4696 3.38901 13.6429 3.6073 13.7456 3.86284L15.7189 8.73306L20.7573 9.18612C21.0235 9.20933 21.2771 9.31357 21.4863 9.48577C21.6956 9.65797 21.8512 9.89047 21.9337 10.1541C22.0162 10.4177 22.0218 10.7008 21.9499 10.9677C21.878 11.2347 21.7318 11.4736 21.5295 11.6547H21.5253Z" fill="#FFFF1A"/>
</g>
</svg>
