<svg width="24" height="22" viewBox="0 0 24 22" fill="none" xmlns="http://www.w3.org/2000/svg">
<g id="ph:castle-turret-light">
<path id="Vector" d="M18.75 2.69714H17.25C16.9019 2.69714 16.5681 2.81807 16.3219 3.03331C16.0758 3.24855 15.9375 3.54048 15.9375 3.84488V5.15659C15.9375 5.20007 15.9177 5.24178 15.8826 5.27252C15.8474 5.30327 15.7997 5.32055 15.75 5.32055H14.25C14.2003 5.32055 14.1526 5.30327 14.1174 5.27252C14.0823 5.24178 14.0625 5.20007 14.0625 5.15659V3.84488C14.0625 3.54048 13.9242 3.24855 13.6781 3.03331C13.4319 2.81807 13.0981 2.69714 12.75 2.69714H11.25C10.9019 2.69714 10.5681 2.81807 10.3219 3.03331C10.0758 3.24855 9.9375 3.54048 9.9375 3.84488V5.15659C9.9375 5.20007 9.91775 5.24178 9.88259 5.27252C9.84742 5.30327 9.79973 5.32055 9.75 5.32055H8.25C8.20028 5.32055 8.15258 5.30327 8.11742 5.27252C8.08226 5.24178 8.0625 5.20007 8.0625 5.15659V3.84488C8.0625 3.54048 7.92422 3.24855 7.67808 3.03331C7.43194 2.81807 7.0981 2.69714 6.75 2.69714H5.25C4.90191 2.69714 4.56807 2.81807 4.32193 3.03331C4.07578 3.24855 3.9375 3.54048 3.9375 3.84488V7.50863C3.9371 7.65929 3.97087 7.80852 4.03684 7.94769C4.10282 8.08686 4.1997 8.21321 4.32188 8.31943L5.38313 9.24746C5.418 9.2782 5.43754 9.31975 5.4375 9.36305V18.2736C5.4375 18.578 5.57578 18.8699 5.82193 19.0852C6.06807 19.3004 6.40191 19.4213 6.75 19.4213H17.25C17.5981 19.4213 17.9319 19.3004 18.1781 19.0852C18.4242 18.8699 18.5625 18.578 18.5625 18.2736V9.36305C18.5625 9.31975 18.582 9.2782 18.6169 9.24746L19.6781 8.31943C19.8003 8.21321 19.8972 8.08686 19.9632 7.94769C20.0291 7.80852 20.0629 7.65929 20.0625 7.50863V3.84488C20.0625 3.54048 19.9242 3.24855 19.6781 3.03331C19.4319 2.81807 19.0981 2.69714 18.75 2.69714ZM13.6875 18.4376H10.3125V13.0268C10.3125 12.6354 10.4903 12.2601 10.8068 11.9833C11.1232 11.7066 11.5525 11.5511 12 11.5511C12.4476 11.5511 12.8768 11.7066 13.1932 11.9833C13.5097 12.2601 13.6875 12.6354 13.6875 13.0268V18.4376ZM18.9375 7.50863C18.9375 7.55193 18.918 7.59348 18.8831 7.62423L17.8219 8.55225C17.6997 8.65847 17.6028 8.78482 17.5368 8.92399C17.4709 9.06316 17.4371 9.21239 17.4375 9.36305V18.2736C17.4375 18.3171 17.4177 18.3588 17.3826 18.3895C17.3474 18.4203 17.2997 18.4376 17.25 18.4376H14.8125V13.0268C14.8125 12.3745 14.5162 11.7489 13.9887 11.2877C13.4613 10.8265 12.7459 10.5674 12 10.5674C11.2541 10.5674 10.5387 10.8265 10.0113 11.2877C9.48382 11.7489 9.1875 12.3745 9.1875 13.0268V18.4376H6.75C6.70028 18.4376 6.65258 18.4203 6.61742 18.3895C6.58226 18.3588 6.5625 18.3171 6.5625 18.2736V9.36305C6.56291 9.21239 6.52914 9.06316 6.46317 8.92399C6.39719 8.78482 6.30031 8.65847 6.17813 8.55225L5.11688 7.62423C5.08201 7.59348 5.06246 7.55193 5.0625 7.50863V3.84488C5.0625 3.8014 5.08226 3.75969 5.11742 3.72894C5.15258 3.69819 5.20028 3.68092 5.25 3.68092H6.75C6.79973 3.68092 6.84742 3.69819 6.88259 3.72894C6.91775 3.75969 6.9375 3.8014 6.9375 3.84488V5.15659C6.9375 5.46098 7.07578 5.75292 7.32193 5.96816C7.56807 6.1834 7.90191 6.30432 8.25 6.30432H9.75C9.92236 6.30432 10.093 6.27464 10.2523 6.21696C10.4115 6.15928 10.5562 6.07474 10.6781 5.96816C10.8 5.86158 10.8966 5.73506 10.9626 5.59581C11.0286 5.45656 11.0625 5.30731 11.0625 5.15659V3.84488C11.0625 3.8014 11.0823 3.75969 11.1174 3.72894C11.1526 3.69819 11.2003 3.68092 11.25 3.68092H12.75C12.7997 3.68092 12.8474 3.69819 12.8826 3.72894C12.9177 3.75969 12.9375 3.8014 12.9375 3.84488V5.15659C12.9375 5.46098 13.0758 5.75292 13.3219 5.96816C13.5681 6.1834 13.9019 6.30432 14.25 6.30432H15.75C16.0981 6.30432 16.4319 6.1834 16.6781 5.96816C16.9242 5.75292 17.0625 5.46098 17.0625 5.15659V3.84488C17.0625 3.8014 17.0823 3.75969 17.1174 3.72894C17.1526 3.69819 17.2003 3.68092 17.25 3.68092H18.75C18.7997 3.68092 18.8474 3.69819 18.8826 3.72894C18.9177 3.75969 18.9375 3.8014 18.9375 3.84488V7.50863Z" fill="#FFFF1A"/>
</g>
</svg>
