<svg width="31" height="25" viewBox="0 0 31 25" fill="none" xmlns="http://www.w3.org/2000/svg">
<g id="Corazon2">
<path id="Vector" d="M14.6599 4.2924L15.5 5.59366L16.3401 4.2924C17.6323 2.29101 19.9199 1 22.5455 1C26.6568 1 30 4.31585 30 8.33333C30 10.1114 29.1676 11.9856 27.7758 13.8562C26.3922 15.7159 24.525 17.4787 22.6222 19.0133C20.7245 20.5437 18.8217 21.8229 17.3905 22.7206C16.6759 23.1688 16.0813 23.5204 15.6669 23.7591C15.6082 23.7929 15.5531 23.8245 15.5019 23.8537C15.4503 23.8241 15.3949 23.7921 15.3358 23.7578C14.9213 23.5173 14.3265 23.1632 13.6118 22.7122C12.1803 21.809 10.277 20.5231 8.37881 18.9881C6.47551 17.4489 4.60778 15.6835 3.2237 13.8263C1.83091 11.9574 1 10.0924 1 8.33333C1 4.31585 4.34317 1 8.45455 1C11.0801 1 13.3677 2.29101 14.6599 4.2924Z" fill="#969696" stroke="black" stroke-width="2"/>
</g>
</svg>
