<svg width="22" height="22" viewBox="0 0 22 22" fill="none" xmlns="http://www.w3.org/2000/svg">
<g clip-path="url(#clip0_222_1488)">
<path d="M2.49199 0.0902583C2.01504 0.167602 1.75723 0.343774 1.02676 1.06995C0.481055 1.61565 0.330664 1.79182 0.223242 2.01956C-0.0431641 2.57385 -0.0431641 3.17971 0.223242 3.73831C0.347852 3.99182 0.661523 4.31838 3.8627 7.52815L7.36465 11.043L3.8627 14.5578C0.661523 17.7676 0.347852 18.0942 0.223242 18.3477C-0.0431641 18.9063 -0.0431641 19.5121 0.223242 20.0664C0.330664 20.2942 0.481055 20.4703 1.02676 21.016C1.87324 21.8625 2.05801 21.9699 2.73262 21.9914C3.21387 22.0129 3.45879 21.9571 3.82402 21.7508C3.94434 21.6821 5.33223 20.3285 7.51074 18.1586L10.9998 14.6781L14.5146 18.1801C18.6225 22.2793 18.2529 21.9785 19.1639 21.9785C19.6881 21.9785 19.7096 21.9742 20.0018 21.8324C20.2553 21.7078 20.41 21.5789 20.9729 21.016C21.5186 20.4703 21.6689 20.2942 21.7764 20.0664C22.0428 19.5121 22.0428 18.9063 21.7764 18.3477C21.6518 18.0942 21.3381 17.7676 18.1369 14.5578L14.635 11.043L18.1369 7.52815C21.3381 4.31838 21.6518 3.99182 21.7764 3.73831C22.0428 3.17971 22.0428 2.57385 21.7764 2.01956C21.6689 1.79182 21.5186 1.61565 20.9729 1.06995C20.4271 0.524243 20.251 0.373852 20.0232 0.26643C19.4689 2.39373e-05 18.8631 2.39373e-05 18.3045 0.26643C18.051 0.39104 17.7244 0.704711 14.5146 3.90588L10.9998 7.40784L7.48926 3.90159C4.24512 0.66604 3.95293 0.386743 3.69512 0.26643C3.54043 0.193383 3.28691 0.111743 3.13652 0.0902583C2.82285 0.0386958 2.81855 0.0386958 2.49199 0.0902583Z" fill="#FFFFB8"/>
</g>
<defs>
<clipPath id="clip0_222_1488">
<rect width="22" height="22" fill="white"/>
</clipPath>
</defs>
</svg>
