<svg width="28" height="27" viewBox="0 0 28 27" fill="none" xmlns="http://www.w3.org/2000/svg">
<path id="Vector" d="M27.4757 10.2559C27.3333 9.81915 27.0656 9.43392 26.706 9.14807C26.3464 8.86222 25.9107 8.68835 25.4531 8.64806L18.7734 8.07033L16.1601 1.84299C15.9803 1.4195 15.6799 1.05828 15.2963 0.804361C14.9126 0.550438 14.4628 0.415039 14.0027 0.415039C13.5426 0.415039 13.0927 0.550438 12.7091 0.804361C12.3255 1.05828 12.025 1.4195 11.8453 1.84299L9.22847 8.07033L2.54878 8.64806C2.08869 8.68616 1.6501 8.85929 1.28804 9.14572C0.925971 9.43216 0.656564 9.81914 0.513617 10.2581C0.370671 10.6971 0.360552 11.1685 0.484531 11.6132C0.60851 12.0579 0.861064 12.4561 1.2105 12.7578L6.28707 17.1875L4.76363 23.7781C4.65915 24.2269 4.68928 24.6966 4.85024 25.1283C5.01121 25.5601 5.29587 25.9348 5.66864 26.2056C6.04141 26.4765 6.48575 26.6315 6.94612 26.6512C7.40648 26.6709 7.86244 26.5544 8.25699 26.3164L13.9992 22.8289L19.7414 26.3164C20.1359 26.5541 20.5917 26.6702 21.0519 26.6503C21.512 26.6304 21.9561 26.4754 22.3286 26.2046C22.7012 25.9338 22.9857 25.5592 23.1467 25.1277C23.3076 24.6962 23.3378 24.2268 23.2336 23.7781L21.7101 17.1875L26.7867 12.7578C27.1352 12.455 27.3865 12.056 27.5091 11.6109C27.6317 11.1658 27.6201 10.6944 27.4757 10.2559ZM19.6535 15.2504C19.3321 15.53 19.093 15.8919 18.9619 16.2972C18.8308 16.7026 18.8126 17.1359 18.9093 17.5508L20.2441 23.3305L15.2121 20.2742C14.8466 20.0517 14.427 19.934 13.9992 19.934C13.5713 19.934 13.1517 20.0517 12.7863 20.2742L7.75425 23.3305L9.08902 17.5508C9.18575 17.1359 9.16758 16.7026 9.03647 16.2972C8.90536 15.8919 8.66626 15.53 8.34488 15.2504L3.88121 11.3563L9.75699 10.8477C10.1825 10.8112 10.5898 10.6588 10.9347 10.4069C11.2795 10.155 11.5487 9.81339 11.7128 9.41916L13.9992 3.97111L16.2855 9.41916C16.4497 9.81339 16.7188 10.155 17.0637 10.4069C17.4085 10.6588 17.8159 10.8112 18.2414 10.8477L24.1171 11.3563L19.6535 15.2504Z" fill="#FFC834"/>
</svg>
