<svg width="24" height="24" viewBox="0 0 24 24" fill="none" xmlns="http://www.w3.org/2000/svg">
<g id="solar:dislike-broken">
<path id="Vector" d="M11.675 21.868L11.349 22.543L11.674 21.868H11.675ZM3 13.766L3.747 13.83C3.72978 14.0221 3.63924 14.2002 3.49416 14.3272C3.34909 14.4543 3.16064 14.5206 2.96796 14.5124C2.77528 14.5041 2.59318 14.422 2.45948 14.283C2.32578 14.144 2.25076 13.9589 2.25 13.766H3ZM20.236 11.943L19.53 7.863L21.009 7.607L21.714 11.687L20.236 11.943ZM13.245 2.75H8.596V1.25H13.245V2.75ZM7.685 3.588L6.873 12.98L5.378 12.851L6.191 3.458L7.685 3.588ZM19.53 7.863C19.023 4.933 16.381 2.75 13.245 2.75V1.25C17.071 1.25 20.371 3.919 21.009 7.607L19.53 7.863ZM13.255 18.9L12.592 14.855L14.072 14.613L14.735 18.657L13.255 18.9ZM7.188 13.754L8.627 14.994L7.647 16.131L6.208 14.891L7.188 13.754ZM11.244 19.028L11.72 20.862L10.268 21.238L9.792 19.405L11.244 19.028ZM12.438 21.222L12.583 21.175L13.042 22.603L12.897 22.65L12.438 21.222ZM10.523 17.184C10.835 17.768 11.078 18.387 11.244 19.028L9.792 19.405C9.65529 18.8784 9.45657 18.3698 9.2 17.89L10.524 17.184H10.523ZM12.583 21.175C12.7257 21.1318 12.8551 21.0532 12.9593 20.9465C13.0635 20.8399 13.1391 20.7087 13.179 20.565L14.631 20.941C14.5277 21.3295 14.3278 21.6856 14.05 21.9761C13.7722 22.2667 13.4255 22.4823 13.042 22.603L12.583 21.175ZM11.72 20.862C11.7398 20.9341 11.7751 21.001 11.8235 21.058C11.8719 21.115 11.9321 21.1607 12 21.192L11.349 22.543C11.0848 22.4171 10.8513 22.2351 10.6646 22.0097C10.4779 21.7844 10.3425 21.521 10.268 21.238L11.72 20.862ZM12 21.192C12.1369 21.2574 12.2935 21.2681 12.438 21.222L12.897 22.65C12.3863 22.8137 11.8323 22.7754 11.349 22.543L11.999 21.192H12ZM14.154 13.016H19.334V14.516H14.154V13.016ZM4.719 2.594L3.747 13.83L2.253 13.701L3.223 2.465L4.719 2.594ZM3.75 2.487V13.766H2.25V2.487H3.75ZM3.223 2.465C3.21995 2.50134 3.22549 2.53792 3.23733 2.57241C3.24918 2.60691 3.26807 2.63856 3.2928 2.66536C3.31753 2.69216 3.34757 2.71353 3.381 2.7281C3.41443 2.74267 3.45053 2.75013 3.487 2.75V1.25C4.213 1.25 4.781 1.872 4.719 2.594L3.224 2.464L3.223 2.465ZM14.735 18.657C14.86 19.417 14.825 20.195 14.631 20.941L13.179 20.564C13.319 20.021 13.346 19.454 13.255 18.9L14.735 18.657ZM8.596 2.75C8.36685 2.75042 8.14619 2.83671 7.97754 2.99184C7.80889 3.14697 7.70451 3.35968 7.685 3.588L6.191 3.458C6.24303 2.85584 6.51888 2.29505 6.96411 1.88629C7.40933 1.47754 7.99159 1.25051 8.596 1.25V2.75ZM8.627 14.994C9.307 15.58 10.039 16.277 10.524 17.184L9.2 17.891C8.854 17.242 8.303 16.695 7.647 16.131L8.627 14.994ZM21.714 11.687C21.7742 12.034 21.7578 12.39 21.666 12.73C21.5741 13.07 21.4091 13.3858 21.1823 13.6553C20.9556 13.9249 20.6727 14.1415 20.3534 14.2902C20.0341 14.4389 19.6862 14.5159 19.334 14.516V13.016C19.4675 13.0159 19.5995 12.9867 19.7205 12.9303C19.8415 12.8738 19.9488 12.7916 20.0347 12.6894C20.1207 12.5872 20.1832 12.4674 20.218 12.3385C20.2527 12.2095 20.2589 12.0746 20.236 11.943L21.714 11.687ZM3.487 2.75C3.55675 2.75 3.62365 2.72229 3.67297 2.67297C3.72229 2.62365 3.75 2.55675 3.75 2.487H2.25C2.25 1.805 2.803 1.25 3.487 1.25V2.75ZM12.592 14.855C12.5547 14.6284 12.5672 14.3964 12.6285 14.1752C12.6899 13.9539 12.7986 13.7486 12.9472 13.5735C13.0958 13.3985 13.2807 13.2579 13.4891 13.1614C13.6975 13.065 13.9244 13.016 14.154 13.016V14.516C14.104 14.516 14.064 14.561 14.072 14.613L12.592 14.855ZM6.873 12.98C6.86064 13.1248 6.88184 13.2705 6.93678 13.4051C6.99171 13.5396 7.07782 13.6592 7.188 13.754L6.208 14.891C5.91802 14.641 5.69156 14.3256 5.54726 13.971C5.40296 13.6163 5.34495 13.2325 5.378 12.851L6.873 12.981V12.98Z" fill="#282B30"/>
</g>
</svg>
