<svg width="52" height="52" viewBox="0 0 52 52" fill="none" xmlns="http://www.w3.org/2000/svg">
<path fill-rule="evenodd" clip-rule="evenodd" d="M24.5114 0.0103872C20.6345 0.315478 17.6942 1.09106 14.5242 2.64483C7.63587 6.02096 2.56695 12.3045 0.737637 19.7351C0.186466 21.9739 0 23.5554 0 25.991C0 28.4266 0.186466 30.0081 0.737637 32.2469C3.00412 41.4531 10.2333 48.7812 19.3895 51.1538C29.0862 53.6665 39.2536 50.4859 45.7436 42.9096C50.5636 37.2828 52.7406 29.9442 51.7761 22.574C50.6523 13.9868 45.2337 6.44878 37.4494 2.64352C36.4014 2.13116 35.012 1.54447 34.9202 1.57545C34.8917 1.58498 34.9448 1.70771 35.038 1.84814C35.1312 1.98857 35.2076 2.17468 35.2077 2.26177C35.2079 2.34881 35.2551 2.51478 35.3127 2.63058C35.4628 2.93216 35.5706 4.00971 35.5268 4.77025C35.4665 5.818 35.4078 6.35351 35.3405 6.47244C35.3052 6.53485 35.1999 6.84783 35.1065 7.16796C35.0131 7.48809 34.8905 7.82001 34.834 7.90558C34.7775 7.99114 34.6701 8.17606 34.5952 8.31649C34.2246 9.01178 33.1489 10.2268 32.3139 10.8931C31.8175 11.2893 30.8376 11.8946 30.3846 12.0848C30.1817 12.17 29.8242 12.3383 29.5902 12.4588C29.3561 12.5793 28.9514 12.7564 28.6908 12.8526C28.2262 13.0238 27.2786 13.5657 26.3062 14.2162C25.5721 14.7073 24.3773 15.9734 24.3714 16.2664C24.3704 16.3167 24.2958 16.521 24.2056 16.7204C23.8631 17.4774 23.7855 17.8613 23.8169 18.6432C23.8398 19.214 23.87 19.4065 23.9717 19.6298C24.14 19.9991 24.1131 20.4732 23.8984 20.9244C23.6505 21.4454 23.2246 21.7071 22.6243 21.7071C22.2949 21.7071 22.1967 21.6826 21.9824 21.5467C21.5853 21.2948 21.2638 20.8907 21.1388 20.4861C21.0428 20.1754 20.9584 19.588 20.8901 18.7566C20.8519 18.2925 20.9628 17.2642 21.1012 16.7991C21.1754 16.5495 21.2515 16.2401 21.2702 16.1117C21.3095 15.8413 21.7678 14.9261 22.2329 14.1891C22.6773 13.4849 23.7193 12.4296 24.5101 11.8828C25.3641 11.2924 26.3775 10.6684 26.8096 10.467C27.4663 10.1609 27.5349 10.1322 27.6126 10.1311C27.6547 10.1306 27.7993 10.0555 27.9339 9.96422C28.0686 9.87304 28.2984 9.75655 28.4446 9.70543C29.0891 9.48028 30.0007 8.97689 30.5234 8.55758C31.3143 7.92305 32.0241 7.09397 32.1203 6.69248C32.1418 6.60266 32.1789 6.50365 32.2028 6.47244C32.2267 6.44123 32.3272 6.17541 32.4262 5.88172C32.5951 5.38037 32.606 5.29855 32.6048 4.54306C32.6036 3.82076 32.5886 3.69905 32.4587 3.3539C32.3501 3.06538 32.3139 2.86208 32.3139 2.53923C32.3139 2.15749 32.334 2.07595 32.4914 1.81614C32.6194 1.60507 32.7555 1.47354 32.9789 1.34525C33.1494 1.24738 33.3376 1.16726 33.3972 1.16726C33.4568 1.16726 33.5056 1.14173 33.5056 1.11052C33.5056 1.07931 33.4975 1.05378 33.4876 1.05378C33.4776 1.05378 33.0238 0.94047 32.479 0.801968C30.3138 0.251532 28.6409 0.0342747 26.3556 0.00681259C25.4974 -0.00351408 24.6675 -0.00192537 24.5114 0.0103872ZM34.2149 16.8951C34.5582 16.9592 34.9463 17.0595 35.0772 17.1182C35.2081 17.1767 35.3541 17.2247 35.4015 17.2247C35.449 17.2247 35.5717 17.2619 35.6742 17.3075C35.7767 17.3531 36.1287 17.4948 36.4564 17.6225C37.2092 17.9158 38.328 18.4803 38.6978 18.7536C38.8539 18.8688 39.1287 19.0499 39.3085 19.156C39.4884 19.2621 39.8331 19.5246 40.0746 19.7394C40.3161 19.9541 40.6414 20.2142 40.7974 20.3172C41.4652 20.7581 43.3744 22.7086 44.1148 23.7063C44.3063 23.9642 44.532 24.2647 44.6163 24.3739C44.94 24.7931 45.7301 26.0123 45.9768 26.4733C46.1188 26.7385 46.2947 27.0445 46.3677 27.1531C46.4407 27.2618 46.5004 27.3771 46.5004 27.4095C46.5004 27.4418 46.5597 27.5572 46.6323 27.6658C46.7049 27.7745 46.8727 28.1443 47.0051 28.4875C47.1376 28.8308 47.3054 29.2521 47.3781 29.4238C47.5991 29.9459 47.6811 30.3246 47.7525 31.1543C47.8224 31.9658 47.7943 33.2982 47.6923 34.0179C47.6079 34.6128 47.0782 35.9494 46.6719 36.5927C46.2361 37.2826 45.3202 37.7771 44.334 37.8547C43.5493 37.9166 42.3445 37.7186 41.5635 37.3993C41.4543 37.3548 41.2755 37.3036 41.1663 37.2858C41.057 37.268 40.7123 37.1358 40.4002 36.9921C38.5412 36.1361 36.9142 35.5016 36.3429 35.4098C36.2024 35.3872 35.9982 35.3305 35.8889 35.2838C35.3566 35.056 32.622 34.8968 31.7749 35.0442C31.5876 35.0768 31.2712 35.128 31.0717 35.1582C30.8722 35.1884 30.5944 35.2637 30.4544 35.3256C30.3145 35.3875 30.1129 35.4382 30.0066 35.4382C29.9002 35.4382 29.7566 35.4744 29.6875 35.5187C29.5588 35.6012 28.2595 36.1191 28.1813 36.1191C28.0847 36.1191 26.8698 36.7708 26.4208 37.0634C25.2282 37.8408 23.7896 39.3571 23.0317 40.6358C22.8487 40.9446 22.6533 41.2739 22.5977 41.3675C22.4274 41.6541 22.2353 42.0648 21.815 43.0413C21.5934 43.5563 21.3762 44.0542 21.3322 44.1478C21.2882 44.2414 21.1616 44.5309 21.0508 44.7911C20.5053 46.0721 19.8797 47.0214 19.094 47.7602C18.5089 48.3104 17.9888 48.6089 17.4749 48.6895C17.135 48.7428 16.4353 48.7436 16.2147 48.6911C16.0311 48.6473 14.9962 48.205 14.5809 47.9928C13.5429 47.4625 12.2384 46.2233 11.4005 44.9716C11.0625 44.4666 10.8641 44.1077 10.8641 44.0011C10.8641 43.9407 10.6853 43.4915 10.4934 43.0697C10.3127 42.6727 10.2427 42.4493 10.0738 41.7299C9.97567 41.3121 9.85548 40.8554 9.80668 40.715C9.75787 40.5746 9.69648 40.2874 9.67026 40.0769C9.6441 39.8663 9.60716 39.6691 9.58821 39.6385C9.56931 39.6078 9.51512 39.346 9.46785 39.0567C9.19553 37.3904 9.11784 35.9143 9.21766 34.3034C9.25346 33.7261 9.28377 33.2154 9.28507 33.1686C9.28638 33.1218 9.32383 32.9528 9.36832 32.793C9.4128 32.6333 9.45871 32.3014 9.4704 32.0554C9.4935 31.5701 9.61306 30.9537 9.78835 30.4167C9.84941 30.2295 9.89957 30.0124 9.89974 29.9344C9.89997 29.8564 9.93679 29.7222 9.98168 29.6362C10.0265 29.5502 10.1033 29.3204 10.1523 29.1255C10.2013 28.9307 10.3152 28.618 10.4055 28.4308C10.4957 28.2436 10.6257 27.9627 10.6943 27.8067C11.5118 25.9472 12.6057 24.6093 13.771 24.0441C14.612 23.6362 14.7477 23.6079 15.8577 23.6081C16.6809 23.6082 16.8883 23.6252 17.0705 23.7074C17.1913 23.7619 17.3701 23.8071 17.4677 23.8079C17.5653 23.8086 17.7984 23.8749 17.9857 23.9552C18.1729 24.0354 18.4793 24.1451 18.6666 24.1988C19.061 24.312 19.7338 24.5681 19.9521 24.6882C20.035 24.7338 20.1675 24.7711 20.2467 24.7711C20.3259 24.7711 20.5645 24.8325 20.777 24.9076C21.5825 25.1922 23.3125 25.1794 24.0291 24.8835C24.2007 24.8127 24.4579 24.7085 24.6006 24.6521C24.9699 24.5063 25.759 23.9638 26.1489 23.5879C26.6225 23.1312 27.3939 21.9408 27.8088 21.0262C27.8584 20.917 27.9394 20.751 27.9887 20.6574C28.038 20.5638 28.198 20.2574 28.3441 19.9766C29.1436 18.4395 30.0575 17.5168 31.2358 17.0571C32.0996 16.72 33.0122 16.6704 34.2149 16.8951ZM33.8461 22.0578C33.7681 22.0873 33.5864 22.1367 33.4423 22.1676C33.0992 22.2414 32.4988 22.6409 32.3012 22.927C32.0146 23.3421 31.9408 24.2441 32.1481 24.7982C32.4668 25.6499 33.4146 26.2172 34.2301 26.0442C34.409 26.0063 34.6959 25.9088 34.8675 25.8276C35.0392 25.7464 35.2065 25.6798 35.2394 25.6795C35.3429 25.6785 35.6442 25.3217 35.7927 25.0241C36.1651 24.2782 36.0624 23.4313 35.5126 22.7149C35.3177 22.4608 34.7983 22.1151 34.5579 22.0794C34.1053 22.0121 33.9776 22.0082 33.8461 22.0578ZM37.7899 23.8037C37.4078 23.8483 36.885 24.0955 36.5958 24.3683C36.1905 24.7506 35.8797 25.5484 35.9922 25.9178C36.0235 26.0205 36.0641 26.2114 36.0825 26.342C36.1295 26.6746 36.4078 27.0937 36.7526 27.351C37.0649 27.5842 37.7888 27.8918 38.0252 27.8918C38.1937 27.8918 38.938 27.6029 39.2724 27.4077C39.5835 27.2262 39.8461 26.804 39.9849 26.2624C40.0901 25.8516 40.0916 25.8065 40.0075 25.5463C39.9582 25.3936 39.9177 25.2015 39.9175 25.1192C39.9168 24.8447 39.4069 24.2217 38.9907 23.9868C38.6587 23.7995 38.2974 23.7444 37.7899 23.8037ZM31.6501 26.1816C30.9534 26.4783 30.5056 26.9612 30.2877 27.6506C30.201 27.9253 30.2007 27.9718 30.2844 28.2464C30.3344 28.4103 30.3913 28.6209 30.4109 28.7145C30.4674 28.9846 30.8396 29.4838 31.1744 29.7384C31.4278 29.9311 31.5526 29.9833 31.8838 30.0349C32.8617 30.1874 33.6716 29.7833 34.1366 28.9111C34.2539 28.6912 34.2713 28.5829 34.2685 28.0904C34.2659 27.6313 34.2413 27.4696 34.1397 27.2438C33.6796 26.2209 32.6198 25.7687 31.6501 26.1816ZM35.7737 27.8522C35.6012 27.8911 35.3805 27.9796 35.2834 28.0487C35.0036 28.2479 34.5301 28.7943 34.4031 29.0644C34.3392 29.2004 34.2643 29.3256 34.2367 29.3427C34.1273 29.4104 34.1843 29.9905 34.3284 30.2749C34.4064 30.4288 34.4703 30.5906 34.4703 30.6344C34.4703 30.7752 34.9123 31.2743 35.2207 31.4815C35.6474 31.7684 35.9906 31.8397 36.5929 31.7667C37.0157 31.7154 37.1221 31.6786 37.3993 31.4877C37.7747 31.2292 37.9441 31.0395 38.1335 30.6658C38.2531 30.4299 38.2722 30.3139 38.2722 29.8262C38.2722 29.5149 38.2484 29.2455 38.2192 29.2274C38.19 29.2094 38.1117 29.0483 38.0452 28.8695C37.9098 28.505 37.629 28.182 37.256 27.9616C37.052 27.841 36.9213 27.8108 36.5467 27.7975C36.2941 27.7886 35.9464 27.8132 35.7737 27.8522ZM17.3331 28.9104C16.8967 29.1428 16.3922 29.3504 15.2054 29.786C14.8108 29.9309 14.7693 30.0191 14.9365 30.3578C15.1436 30.7768 15.2902 31.1281 15.2902 31.2046C15.2902 31.2462 15.3773 31.4689 15.4839 31.6995C15.8365 32.4634 15.9078 32.6924 15.8365 32.8326C15.7994 32.9057 15.6773 32.9866 15.5456 33.0254C15.4208 33.0621 15.2675 33.1212 15.2051 33.1566C15.043 33.2484 14.2872 33.5658 14.2309 33.5657C14.1079 33.5654 13.0772 34.04 13.0774 34.0969C13.0775 34.1324 13.154 34.3147 13.2474 34.502C13.3408 34.6892 13.4173 34.8695 13.4174 34.9027C13.4177 34.9794 13.9032 36.2143 14.0072 36.4028C14.0502 36.4808 14.1032 36.6273 14.1247 36.7284C14.1464 36.8295 14.1866 36.9261 14.2143 36.9432C14.2419 36.9602 14.5272 36.868 14.8483 36.7383C15.1694 36.6086 15.5598 36.4574 15.7158 36.4024C15.8719 36.3474 16.2368 36.1932 16.5267 36.0598C16.8371 35.9169 17.0737 35.8384 17.1021 35.8688C17.1286 35.8972 17.2313 36.112 17.3302 36.346C17.4291 36.5801 17.5323 36.8226 17.5594 36.8851C17.7891 37.4122 18.0507 38.1004 18.1635 38.4738C18.1987 38.5905 18.2572 38.65 18.3495 38.6632C18.4919 38.6835 18.5466 38.6639 19.4962 38.2525C19.8276 38.1089 20.1222 37.9915 20.1509 37.9915C20.1796 37.9915 20.4174 37.9024 20.6794 37.7936C21.2521 37.5557 21.3438 37.4554 21.1691 37.2584C21.094 37.1736 20.8532 36.6027 20.419 35.4796C20.3133 35.206 20.1951 34.9313 20.1564 34.8695C20.056 34.7089 20.1603 34.5718 20.4245 34.5169C20.543 34.4923 20.7321 34.4227 20.8449 34.3623C21.0582 34.248 21.3419 34.1311 22.0146 33.8805C22.6109 33.6584 22.8942 33.518 22.8942 33.4445C22.8942 33.4082 22.8341 33.2483 22.7607 33.0892C22.6166 32.7768 22.4529 32.383 22.2983 31.9771C22.1942 31.7035 22.0609 31.3745 21.8786 30.9409C21.8162 30.7923 21.7264 30.6559 21.6793 30.6378C21.6321 30.6197 21.449 30.6711 21.2723 30.7519C21.0957 30.8328 20.9222 30.8992 20.887 30.8993C20.8518 30.8996 20.7552 30.935 20.6724 30.9783C20.5896 31.0214 20.4236 31.0884 20.3036 31.1271C20.1835 31.1657 20.0214 31.2288 19.9434 31.2672C19.4819 31.4944 19.1325 31.6366 19.0355 31.6366C18.9036 31.6366 18.7711 31.4497 18.6653 31.1145C18.623 30.9804 18.5071 30.6791 18.4079 30.4451C18.1859 29.9214 18.0326 29.5313 17.9176 29.1968C17.8309 28.9449 17.709 28.7972 17.5918 28.8021C17.5587 28.8035 17.4423 28.8522 17.3331 28.9104Z" fill="#FFFF1A"/>
</svg>
