<svg width="29" height="27" viewBox="0 0 29 27" fill="none" xmlns="http://www.w3.org/2000/svg">
<path id="Vector" d="M28.8998 10.1612C28.7787 9.78798 28.5504 9.45858 28.2435 9.21409C27.9365 8.96959 27.5644 8.8208 27.1735 8.78625L19.7498 8.14624L16.8398 1.22624C16.6883 0.86314 16.4327 0.552979 16.1053 0.334817C15.7779 0.116654 15.3932 0.000244141 14.9998 0.000244141C14.6063 0.000244141 14.2217 0.116654 13.8943 0.334817C13.5668 0.552979 13.3113 0.86314 13.1598 1.22624L10.2585 8.14624L2.82604 8.78874C2.4333 8.82148 2.05899 8.96953 1.7501 9.21428C1.44121 9.45903 1.21152 9.78959 1.08987 10.1644C0.968209 10.5393 0.96001 10.9417 1.0663 11.3212C1.17259 11.7007 1.38863 12.0404 1.68729 12.2975L7.32604 17.225L5.63604 24.5425C5.54667 24.9254 5.57217 25.3262 5.70935 25.6947C5.84652 26.0632 6.08928 26.3831 6.40728 26.6144C6.72528 26.8457 7.1044 26.9782 7.49725 26.9951C7.89011 27.0121 8.27925 26.913 8.61604 26.71L14.991 22.835L21.3798 26.71C21.7166 26.913 22.1057 27.0121 22.4986 26.9951C22.8914 26.9782 23.2705 26.8457 23.5885 26.6144C23.9065 26.3831 24.1493 26.0632 24.2865 25.6947C24.4237 25.3262 24.4492 24.9254 24.3598 24.5425L22.671 17.2175L28.3085 12.2975C28.6067 12.0394 28.822 11.6989 28.9272 11.3188C29.0324 10.9387 29.0228 10.5359 28.8998 10.1612ZM26.9973 10.7862L21.3598 15.7062C21.0854 15.9449 20.8813 16.2539 20.7694 16.5999C20.6575 16.9459 20.6421 17.3159 20.7248 17.67L22.4185 25L16.0348 21.125C15.7233 20.9353 15.3657 20.835 15.001 20.835V2.01124L17.901 8.92125C18.0419 9.25706 18.2717 9.54806 18.5658 9.76283C18.8599 9.97761 19.207 10.108 19.5698 10.14L26.9998 10.7825V10.7912L26.9973 10.7862Z" fill="#FFC834"/>
</svg>
