<svg width="57" height="51" viewBox="0 0 57 51" fill="none" xmlns="http://www.w3.org/2000/svg">
<path d="M4.35796 33.7789C4.21735 33.7557 4.06502 33.7441 3.90097 33.7441C3.29165 33.7441 2.87819 34.0005 2.66058 34.5133L2.66058 38.3243H1.73153L1.73153 32.9551H2.63547L2.65053 33.5754C2.95519 33.0957 3.38707 32.8559 3.94617 32.8559C4.12696 32.8559 4.26422 32.8791 4.35796 32.9254V33.7789Z" fill="#555555"/>
<path d="M7.37107 38.4236C6.63453 38.4236 6.03526 38.1854 5.57325 37.709C5.11124 37.2293 4.88023 36.5892 4.88023 35.7886V35.6199C4.88023 35.0873 4.98234 34.6125 5.18657 34.1957C5.39414 33.7756 5.68205 33.4481 6.05032 33.2132C6.42194 32.975 6.82369 32.8559 7.25557 32.8559C7.96197 32.8559 8.51103 33.0858 8.90273 33.5457C9.29444 34.0055 9.49029 34.6638 9.49029 35.5206V35.9027H5.80928C5.82267 36.432 5.97834 36.8605 6.27631 37.188C6.57762 37.5122 6.95928 37.6743 7.42129 37.6743C7.74938 37.6743 8.02726 37.6081 8.25492 37.4758C8.48257 37.3435 8.68177 37.1681 8.85252 36.9498L9.41998 37.3865C8.96467 38.0779 8.2817 38.4236 7.37107 38.4236ZM7.25557 33.6102C6.8806 33.6102 6.5659 33.7458 6.31146 34.0171C6.05702 34.285 5.89967 34.6622 5.83941 35.1485H8.56125V35.079C8.53446 34.6125 8.40724 34.252 8.17959 33.9972C7.95193 33.7392 7.64392 33.6102 7.25557 33.6102Z" fill="#555555"/>
<path d="M16.094 36.0318C16.0036 36.796 15.7174 37.3865 15.2353 37.8033C14.7565 38.2168 14.1188 38.4236 13.322 38.4236C12.4582 38.4236 11.7652 38.1176 11.2429 37.5056C10.724 36.8935 10.4645 36.0748 10.4645 35.0492V34.3545C10.4645 33.6829 10.5851 33.0924 10.8261 32.583C11.0705 32.0735 11.4153 31.6831 11.8606 31.4119C12.3059 31.1373 12.8215 31 13.4073 31C14.184 31 14.8068 31.215 15.2755 31.6451C15.7442 32.0719 16.017 32.664 16.094 33.4216H15.1248C15.0411 32.846 14.8586 32.4291 14.5774 32.1711C14.2995 31.9131 13.9095 31.784 13.4073 31.784C12.7913 31.784 12.3075 32.009 11.956 32.4589C11.6078 32.9088 11.4337 33.549 11.4337 34.3793V35.079C11.4337 35.863 11.5995 36.4866 11.9309 36.9498C12.2624 37.4129 12.726 37.6445 13.322 37.6445C13.8576 37.6445 14.2677 37.5254 14.5523 37.2872C14.8402 37.0457 15.0311 36.6272 15.1248 36.0318H16.094Z" fill="#555555"/>
<path d="M21.4523 36.4387H18.389L17.701 38.3243H16.7067L19.4988 31.0992H20.3425L23.1397 38.3243H22.1504L21.4523 36.4387ZM18.6803 35.6546H21.1661L19.9207 32.2753L18.6803 35.6546Z" fill="#555555"/>
<path d="M25.0882 35.4958V38.3243H24.124V31.0992H26.8207C27.6208 31.0992 28.2469 31.301 28.6989 31.7046C29.1542 32.1082 29.3818 32.6425 29.3818 33.3075C29.3818 34.0088 29.1592 34.5497 28.7139 34.9301C28.272 35.3073 27.6376 35.4958 26.8106 35.4958H25.0882ZM25.0882 34.7168H26.8207C27.3363 34.7168 27.7313 34.5977 28.0058 34.3595C28.2804 34.118 28.4176 33.7706 28.4176 33.3174C28.4176 32.8873 28.2804 32.5433 28.0058 32.2852C27.7313 32.0272 27.3547 31.8932 26.8759 31.8833H25.0882V34.7168Z" fill="#555555"/>
<path d="M35.6642 31.8833H33.3139V38.3243H32.3548V31.8833H30.0096V31.0992L35.6642 31.0992V31.8833Z" fill="#555555"/>
<path d="M41.9867 36.0318C41.8963 36.796 41.61 37.3865 41.1279 37.8033C40.6492 38.2168 40.0114 38.4236 39.2146 38.4236C38.3509 38.4236 37.6578 38.1176 37.1356 37.5056C36.6166 36.8935 36.3572 36.0748 36.3572 35.0492V34.3545C36.3572 33.6829 36.4777 33.0924 36.7188 32.583C36.9632 32.0735 37.308 31.6831 37.7533 31.4119C38.1985 31.1373 38.7141 31 39.3 31C40.0767 31 40.6994 31.215 41.1681 31.6451C41.6368 32.0719 41.9097 32.664 41.9867 33.4216H41.0175C40.9338 32.846 40.7513 32.4291 40.4701 32.1711C40.1922 31.9131 39.8022 31.784 39.3 31.784C38.684 31.784 38.2002 32.009 37.8487 32.4589C37.5005 32.9088 37.3264 33.549 37.3264 34.3793V35.079C37.3264 35.863 37.4921 36.4866 37.8236 36.9498C38.155 37.4129 38.6187 37.6445 39.2146 37.6445C39.7503 37.6445 40.1604 37.5254 40.445 37.2872C40.7329 37.0457 40.9237 36.6272 41.0175 36.0318H41.9867Z" fill="#555555"/>
<path d="M48.9269 38.3243H47.9577V34.9847H44.2716V38.3243H43.3074V31.0992H44.2716V34.2056H47.9577V31.0992H48.9269V38.3243Z" fill="#555555"/>
<path d="M54.7673 36.4387H51.704L51.016 38.3243H50.0216L52.8138 31.0992H53.6575L56.4546 38.3243H55.4653L54.7673 36.4387ZM51.9952 35.6546H54.481L53.2356 32.2753L51.9952 35.6546Z" fill="#555555"/>
<path d="M0.771356 47.0024L0.771356 49.2652H0L0 43.4851H2.15739C2.7975 43.4851 3.29835 43.6466 3.65992 43.9694C4.02418 44.2923 4.2063 44.7197 4.2063 45.2517C4.2063 45.8128 4.02819 46.2455 3.67198 46.5498C3.31844 46.8515 2.8109 47.0024 2.14935 47.0024H0.771356ZM0.771356 46.3791H2.15739C2.56985 46.3791 2.88589 46.2838 3.10551 46.0933C3.32513 45.9001 3.43494 45.6222 3.43494 45.2596C3.43494 44.9156 3.32513 44.6403 3.10551 44.4339C2.88589 44.2275 2.58458 44.1203 2.20158 44.1123H0.771356L0.771356 46.3791Z" fill="#555555"/>
<path d="M7.17522 45.6288C7.06273 45.6103 6.94087 45.601 6.80963 45.601C6.32217 45.601 5.9914 45.8061 5.81731 46.2164V49.2652H5.07408V44.9698H5.79722L5.80928 45.4661C6.053 45.0823 6.39851 44.8904 6.84578 44.8904C6.99041 44.8904 7.10022 44.909 7.17522 44.946V45.6288Z" fill="#555555"/>
<path d="M8.66972 49.2652H7.92649V44.9698H8.66972L8.66972 49.2652ZM7.86622 43.8305C7.86622 43.7114 7.90238 43.6108 7.9747 43.5288C8.04969 43.4467 8.1595 43.4057 8.30413 43.4057C8.44876 43.4057 8.55857 43.4467 8.63356 43.5288C8.70856 43.6108 8.74605 43.7114 8.74605 43.8305C8.74605 43.9496 8.70856 44.0488 8.63356 44.1282C8.55857 44.2076 8.44876 44.2473 8.30413 44.2473C8.1595 44.2473 8.04969 44.2076 7.9747 44.1282C7.90238 44.0488 7.86622 43.9496 7.86622 43.8305Z" fill="#555555"/>
<path d="M11.2972 48.2688L12.3738 44.9698H13.1331L11.5744 49.2652H11.0079L9.43304 44.9698H10.1923L11.2972 48.2688Z" fill="#555555"/>
<path d="M16.4676 49.2652C16.4248 49.1805 16.39 49.0296 16.3632 48.8126C16.0177 49.1673 15.6052 49.3446 15.1258 49.3446C14.6973 49.3446 14.3451 49.2255 14.0692 48.9873C13.796 48.7465 13.6594 48.4421 13.6594 48.0742C13.6594 47.627 13.8308 47.2803 14.1737 47.0341C14.5192 46.7854 15.0039 46.661 15.628 46.661H16.3511V46.3235C16.3511 46.0668 16.2735 45.863 16.1181 45.7122C15.9628 45.5587 15.7338 45.4819 15.4311 45.4819C15.166 45.4819 14.9437 45.5481 14.7642 45.6804C14.5848 45.8128 14.4951 45.9729 14.4951 46.1608H13.7478C13.7478 45.9464 13.8241 45.74 13.9768 45.5415C14.1322 45.3403 14.3411 45.1816 14.6035 45.0651C14.8687 44.9487 15.1593 44.8904 15.4753 44.8904C15.9762 44.8904 16.3685 45.0148 16.6525 45.2636C16.9364 45.5097 17.0837 45.8498 17.0944 46.2838V48.2608C17.0944 48.6552 17.1453 48.9688 17.247 49.2017V49.2652H16.4676ZM15.2343 48.7054C15.4673 48.7054 15.6883 48.6459 15.8972 48.5268C16.1061 48.4077 16.2574 48.2529 16.3511 48.0623V47.181H15.7686C14.858 47.181 14.4027 47.4444 14.4027 47.971C14.4027 48.2013 14.4803 48.3812 14.6357 48.5109C14.791 48.6406 14.9906 48.7054 15.2343 48.7054Z" fill="#555555"/>
<path d="M20.003 48.7451C20.2682 48.7451 20.4999 48.6657 20.6981 48.5069C20.8962 48.3482 21.0061 48.1497 21.0275 47.9115H21.7305C21.7172 48.1576 21.6314 48.3918 21.4734 48.6141C21.3154 48.8364 21.1038 49.0138 20.8387 49.1461C20.5762 49.2784 20.2976 49.3446 20.003 49.3446C19.4111 49.3446 18.9397 49.1501 18.5889 48.761C18.2407 48.3693 18.0666 47.8347 18.0666 47.1572V47.0341C18.0666 46.616 18.1443 46.2441 18.2996 45.9186C18.455 45.5931 18.6773 45.3403 18.9665 45.1604C19.2585 44.9804 19.6026 44.8904 19.999 44.8904C20.4865 44.8904 20.8909 45.0347 21.2123 45.3231C21.5364 45.6116 21.7091 45.9861 21.7305 46.4466H21.0275C21.0061 46.1687 20.8989 45.9411 20.7061 45.7638C20.5159 45.5838 20.2802 45.4938 19.999 45.4938C19.6214 45.4938 19.3281 45.6288 19.1192 45.8988C18.913 46.1661 18.8098 46.5538 18.8098 47.0619V47.2009C18.8098 47.6958 18.913 48.0769 19.1192 48.3442C19.3254 48.6115 19.62 48.7451 20.003 48.7451Z" fill="#555555"/>
<path d="M23.9884 48.1894L25.0008 44.9698H25.7962L24.0486 49.9281C23.7781 50.6427 23.3482 51 22.759 51L22.6184 50.9881L22.3412 50.9365V50.341L22.5421 50.3569C22.7938 50.3569 22.9894 50.3066 23.1286 50.206C23.2706 50.1055 23.3871 49.9215 23.4781 49.6542L23.6429 49.2175L22.0921 44.9698H22.9037L23.9884 48.1894Z" fill="#555555"/>
<path d="M39.0097 44.1123H37.1295V49.2652H36.3622V44.1123H34.486V43.4851H39.0097V44.1123Z" fill="#555555"/>
<path d="M41.1631 49.3446C40.5739 49.3446 40.0944 49.154 39.7248 48.7729C39.3552 48.3892 39.1704 47.8771 39.1704 47.2366V47.1016C39.1704 46.6755 39.2521 46.2958 39.4155 45.9623C39.5815 45.6262 39.8119 45.3642 40.1065 45.1763C40.4038 44.9857 40.7252 44.8904 41.0707 44.8904C41.6358 44.8904 42.0751 45.0744 42.3884 45.4422C42.7018 45.8101 42.8585 46.3368 42.8585 47.0222V47.3279H39.9137C39.9244 47.7514 40.0489 48.0941 40.2873 48.3561C40.5283 48.6155 40.8337 48.7451 41.2033 48.7451C41.4657 48.7451 41.688 48.6922 41.8702 48.5863C42.0523 48.4805 42.2117 48.3402 42.3482 48.1655L42.8022 48.5149C42.438 49.068 41.8916 49.3446 41.1631 49.3446ZM41.0707 45.4938C40.7707 45.4938 40.519 45.6024 40.3154 45.8194C40.1119 46.0337 39.986 46.3355 39.9378 46.7245H42.1152V46.6689C42.0938 46.2958 41.992 46.0073 41.8099 45.8035C41.6278 45.5971 41.3814 45.4938 41.0707 45.4938Z" fill="#555555"/>
<path d="M45.8234 45.6288C45.7109 45.6103 45.589 45.601 45.4578 45.601C44.9703 45.601 44.6396 45.8061 44.4655 46.2164V49.2652H43.7222V44.9698H44.4454L44.4574 45.4661C44.7012 45.0823 45.0467 44.8904 45.4939 44.8904C45.6386 44.8904 45.7484 44.909 45.8234 44.946V45.6288Z" fill="#555555"/>
<path d="M47.2094 44.9698L47.2295 45.4462C47.5482 45.0757 47.9781 44.8904 48.5191 44.8904C49.1271 44.8904 49.5409 45.1207 49.7605 45.5812C49.9051 45.3748 50.0926 45.208 50.3229 45.081C50.556 44.9539 50.8305 44.8904 51.1465 44.8904C52.1 44.8904 52.5848 45.3893 52.6009 46.3871V49.2652H51.8576V46.4307C51.8576 46.1237 51.7866 45.8948 51.6447 45.7439C51.5027 45.5904 51.2644 45.5137 50.9296 45.5137C50.6537 45.5137 50.4247 45.5957 50.2426 45.7598C50.0605 45.9213 49.9547 46.1396 49.9252 46.4148V49.2652H49.178V46.4506C49.178 45.826 48.8686 45.5137 48.2499 45.5137C47.7625 45.5137 47.429 45.7188 47.2496 46.129V49.2652H46.5063V44.9698H47.2094Z" fill="#555555"/>
<path d="M56.2568 48.1258C56.2568 47.9274 56.1804 47.7739 56.0278 47.6653C55.8778 47.5542 55.614 47.4589 55.2363 47.3795C54.8614 47.3001 54.5627 47.2048 54.3404 47.0937C54.1208 46.9825 53.9574 46.8502 53.8503 46.6967C53.7458 46.5432 53.6936 46.3606 53.6936 46.1489C53.6936 45.7969 53.8436 45.4991 54.1436 45.2557C54.4462 45.0122 54.8319 44.8904 55.3006 44.8904C55.7934 44.8904 56.1925 45.0161 56.4978 45.2676C56.8058 45.519 56.9598 45.8405 56.9598 46.2322H56.2126C56.2126 46.0311 56.1255 45.8577 55.9514 45.7122C55.78 45.5666 55.5631 45.4938 55.3006 45.4938C55.0301 45.4938 54.8185 45.5521 54.6658 45.6685C54.5132 45.785 54.4368 45.9371 54.4368 46.125C54.4368 46.3024 54.5078 46.436 54.6498 46.526C54.7917 46.616 55.0475 46.702 55.4171 46.784C55.7894 46.8661 56.0907 46.964 56.321 47.0778C56.5514 47.1916 56.7215 47.3292 56.8313 47.4907C56.9438 47.6495 57 47.844 57 48.0742C57 48.458 56.8447 48.7663 56.534 48.9992C56.2233 49.2295 55.8202 49.3446 55.3247 49.3446C54.9765 49.3446 54.6685 49.2837 54.4007 49.162C54.1329 49.0402 53.9226 48.8708 53.7699 48.6538C53.62 48.4342 53.545 48.1973 53.545 47.9432H54.2882C54.3016 48.1894 54.4007 48.3852 54.5855 48.5308C54.773 48.6737 55.0194 48.7451 55.3247 48.7451C55.6059 48.7451 55.8309 48.6896 55.9996 48.5784C56.1711 48.4646 56.2568 48.3137 56.2568 48.1258Z" fill="#555555"/>
<g filter="url(#filter0_d_761_729)">
<path d="M38.3087 6.48817C38.195 6.34628 38.078 6.20672 37.9575 6.06962C36.0325 3.8784 33.3765 2.46581 30.487 2.09644C27.5975 1.72708 24.6728 2.42628 22.2607 4.06308L25.7139 9.17566C26.885 8.38099 28.3049 8.04153 29.7078 8.22085C31.1106 8.40018 32.4001 9.08599 33.3347 10.1498C33.5442 10.3883 33.7326 10.642 33.8989 10.9082L30.8422 13.972L41.0003 13.972V3.79024L38.3087 6.48817Z" fill="#1C3AA9"/>
</g>
<g filter="url(#filter1_d_761_729)">
<path d="M28.9442 2.00034L18.7861 2.00034L21.4468 4.66727C19.4585 6.27783 18.0293 8.49098 17.3832 10.9885C16.6521 13.8147 16.9741 16.8111 18.2888 19.4164L23.7854 16.6298C23.1471 15.3649 22.9908 13.9102 23.3457 12.5381C23.7007 11.1659 24.5425 9.9706 25.7136 9.17594C25.7598 9.1446 25.8064 9.11396 25.8533 9.08403L28.9442 12.1821V2.00034Z" fill="#4285F4"/>
</g>
<g filter="url(#filter2_d_761_729)">
<path d="M17 14.0839H27.1581L24.089 17.1602C24.7398 18.1705 25.69 18.9588 26.8132 19.4092C28.1262 19.9357 29.5857 19.9643 30.9183 19.4897C32.2508 19.0151 33.3651 18.0698 34.0522 16.8309L38.4949 21.2727C37.094 23.1157 35.182 24.5233 32.9807 25.3073C30.236 26.2849 27.2298 26.226 24.5253 25.1415C22.6228 24.3787 20.9614 23.1452 19.6857 21.5737L17 24.2657V14.0839Z" fill="#ABABAB"/>
</g>
<defs>
<filter id="filter0_d_761_729" x="20.9176" y="0.656827" width="21.4256" height="14.6584" filterUnits="userSpaceOnUse" color-interpolation-filters="sRGB">
<feFlood flood-opacity="0" result="BackgroundImageFix"/>
<feColorMatrix in="SourceAlpha" type="matrix" values="0 0 0 0 0 0 0 0 0 0 0 0 0 0 0 0 0 0 127 0" result="hardAlpha"/>
<feOffset/>
<feGaussianBlur stdDeviation="0.671587"/>
<feColorMatrix type="matrix" values="0 0 0 0 0 0 0 0 0 0 0 0 0 0 0 0 0 0 0.38 0"/>
<feBlend mode="normal" in2="BackgroundImageFix" result="effect1_dropShadow_761_729"/>
<feBlend mode="normal" in="SourceGraphic" in2="effect1_dropShadow_761_729" result="shape"/>
</filter>
<filter id="filter1_d_761_729" x="15.6568" y="0.657162" width="14.6307" height="20.1025" filterUnits="userSpaceOnUse" color-interpolation-filters="sRGB">
<feFlood flood-opacity="0" result="BackgroundImageFix"/>
<feColorMatrix in="SourceAlpha" type="matrix" values="0 0 0 0 0 0 0 0 0 0 0 0 0 0 0 0 0 0 127 0" result="hardAlpha"/>
<feOffset/>
<feGaussianBlur stdDeviation="0.671587"/>
<feColorMatrix type="matrix" values="0 0 0 0 0 0 0 0 0 0 0 0 0 0 0 0 0 0 0.38 0"/>
<feBlend mode="normal" in2="BackgroundImageFix" result="effect1_dropShadow_761_729"/>
<feBlend mode="normal" in="SourceGraphic" in2="effect1_dropShadow_761_729" result="shape"/>
</filter>
<filter id="filter2_d_761_729" x="15.6568" y="12.7408" width="24.1815" height="14.6024" filterUnits="userSpaceOnUse" color-interpolation-filters="sRGB">
<feFlood flood-opacity="0" result="BackgroundImageFix"/>
<feColorMatrix in="SourceAlpha" type="matrix" values="0 0 0 0 0 0 0 0 0 0 0 0 0 0 0 0 0 0 127 0" result="hardAlpha"/>
<feOffset/>
<feGaussianBlur stdDeviation="0.671587"/>
<feColorMatrix type="matrix" values="0 0 0 0 0 0 0 0 0 0 0 0 0 0 0 0 0 0 0.38 0"/>
<feBlend mode="normal" in2="BackgroundImageFix" result="effect1_dropShadow_761_729"/>
<feBlend mode="normal" in="SourceGraphic" in2="effect1_dropShadow_761_729" result="shape"/>
</filter>
</defs>
</svg>
