<svg width="22" height="20" viewBox="0 0 22 20" fill="none" xmlns="http://www.w3.org/2000/svg">
<g id="Group">
<path id="Vector" d="M1.5 5.46774C1.5 6.56527 2.146 7.44196 3 8.0965C2.462 9.04622 2 10.0765 2 11.1944C2 15.2752 6.062 18.7178 11 18.7178C15.938 18.7178 20 15.2752 20 11.1944C20 10.0765 19.538 9.04622 19 8.0965C19.854 7.44196 20.5 6.53827 20.5 5.44118C20.5 3.47094 18.66 1.90076 16.5 1.90076C14.8635 1.90076 13.5835 2.81242 13 4.11352C12.3417 3.9956 11.6716 3.93718 11 3.93916C10.3245 3.93916 9.6325 3.99625 9 4.11352C8.4165 2.81242 7.1365 1.90076 5.5 1.90076C3.34 1.90076 1.5 3.49793 1.5 5.46774Z" stroke="#FFFF1A" stroke-width="2" stroke-linejoin="round"/>
<path id="Vector_2" d="M9 8.98164C9.55228 8.98164 10 8.58536 10 8.09653C10 7.6077 9.55228 7.21143 9 7.21143C8.44772 7.21143 8 7.6077 8 8.09653C8 8.58536 8.44772 8.98164 9 8.98164Z" fill="#FFFF1A"/>
<path id="Vector_3" d="M13 8.98164C13.5523 8.98164 14 8.58536 14 8.09653C14 7.6077 13.5523 7.21143 13 7.21143C12.4477 7.21143 12 7.6077 12 8.09653C12 8.58536 12.4477 8.98164 13 8.98164Z" fill="#FFFF1A"/>
<path id="Vector_4" d="M11 12.522C11.8284 12.522 12.5 11.9276 12.5 11.1944C12.5 10.4611 11.8284 9.8667 11 9.8667C10.1716 9.8667 9.5 10.4611 9.5 11.1944C9.5 11.9276 10.1716 12.522 11 12.522Z" fill="#FFFF1A"/>
<path id="Vector_5" d="M11 11.1943V14.7348" stroke="#FFFF1A" stroke-width="2" stroke-linecap="round" stroke-linejoin="round"/>
<path id="Vector_6" d="M13 14.2922C11.862 15.2995 10.138 15.2995 9 14.2922" stroke="#FFFF1A" stroke-width="2" stroke-linecap="round"/>
</g>
</svg>
