<svg width="22" height="40" viewBox="0 0 22 40" fill="none" xmlns="http://www.w3.org/2000/svg">
<path d="M1.0494 3.32501C0.182618 2.39379 0.477452 1.01629 1.57301 0.408904C1.92739 0.211422 2.32735 0.110319 2.73301 0.115681C3.37423 0.115681 3.99934 0.357348 4.42145 0.819736L20.8048 18.5017C21.127 18.8392 21.3067 19.2878 21.3067 19.7543C21.3067 20.2209 21.127 20.6695 20.8048 21.007L4.41662 38.6373C3.71095 39.3913 2.48651 39.5444 1.56978 39.0401C0.472618 38.4327 0.179396 37.0585 1.04617 36.1256L16.2647 19.7503L1.0494 3.32501ZM19.1116 20.0693C19.0392 19.9803 18.9997 19.869 18.9997 19.7543C18.9997 19.6396 19.0392 19.5284 19.1116 19.4393L18.82 19.7519L19.1116 20.0693ZM2.68629 37.0198C2.7024 37.0295 2.77167 37.0198 2.7314 37.0633C2.72077 37.0448 2.70513 37.0297 2.68629 37.0198ZM2.72495 2.3809C2.72873 2.38518 2.73249 2.38948 2.73623 2.39379L2.72495 2.3809Z" fill="#ED0080"/>
</svg>
