<svg width="18" height="19" viewBox="0 0 18 19" fill="none" xmlns="http://www.w3.org/2000/svg">
<g id="iconoTendencias">
<path id="iconoTendencias_2" d="M18 1.49989V9.49932C18 9.89712 17.9019 10.2786 17.7273 10.5599C17.5528 10.8412 17.316 10.9992 17.0691 10.9992C16.8222 10.9992 16.5854 10.8412 16.4108 10.5599C16.2363 10.2786 16.1382 9.89712 16.1382 9.49932V5.12464L10.2804 14.564C10.1939 14.7038 10.0912 14.8147 9.97802 14.8904C9.86486 14.9661 9.74355 15.0051 9.62103 15.0051C9.49851 15.0051 9.37719 14.9661 9.26404 14.8904C9.15088 14.8147 9.04812 14.7038 8.96163 14.564L6.51877 10.6242L1.59192 18.5599C1.41704 18.8417 1.17985 19 0.932526 19C0.685204 19 0.448013 18.8417 0.27313 18.5599C0.098248 18.2782 3.68537e-09 17.896 0 17.4975C-3.68537e-09 17.099 0.098248 16.7169 0.27313 16.4351L5.8586 7.43572C5.94508 7.29589 6.04785 7.18494 6.161 7.10924C6.27415 7.03354 6.39547 6.99457 6.51799 6.99457C6.64051 6.99457 6.76183 7.03354 6.87498 7.10924C6.98813 7.18494 7.0909 7.29589 7.17739 7.43572L9.6218 11.3742L14.8194 2.99979H12.1042C11.8573 2.99979 11.6206 2.84176 11.446 2.56048C11.2714 2.27919 11.1733 1.89769 11.1733 1.49989C11.1733 1.1021 11.2714 0.720593 11.446 0.439308C11.6206 0.158024 11.8573 8.38293e-09 12.1042 0H17.0691C17.316 0 17.5528 0.158024 17.7273 0.439308C17.9019 0.720593 18 1.1021 18 1.49989Z" fill="#FFFF1A"/>
</g>
</svg>
