<svg width="19" height="19" viewBox="0 0 19 19" fill="none" xmlns="http://www.w3.org/2000/svg">
<g id="Group">
<path id="Vector" d="M3.63604 3.78791C4.53148 3.00475 5.60585 2.39565 6.78892 2.00046C7.97199 1.60526 9.23711 1.43285 10.5016 1.49451C11.7661 1.55616 13.0015 1.85049 14.1269 2.35825C15.2524 2.86601 16.2427 3.57578 17.033 4.44114L11.414 9.35303L17.033 14.2649C16.2687 15.1004 15.3176 15.7908 14.2379 16.2939C13.1581 16.7971 11.9724 17.1025 10.7531 17.1914C9.53388 17.2803 8.30669 17.1509 7.14655 16.811C5.98642 16.4712 4.9177 15.9281 4.00571 15.2149C3.09371 14.5016 2.35759 13.6333 1.84232 12.6629C1.32705 11.6925 1.04345 10.6404 1.00885 9.57095C0.97425 8.50147 1.18938 7.43705 1.64109 6.44273C2.0928 5.44841 2.77161 4.54508 3.63604 3.78791Z" stroke="#FFFF1A" stroke-width="2" stroke-linecap="round" stroke-linejoin="round"/>
<path id="Vector_2" d="M9.5 6.29239C10.0523 6.29239 10.5 5.90088 10.5 5.41793C10.5 4.93497 10.0523 4.54346 9.5 4.54346C8.94772 4.54346 8.5 4.93497 8.5 5.41793C8.5 5.90088 8.94772 6.29239 9.5 6.29239Z" fill="#FFFF1A" stroke="#FFFF1A" stroke-width="2" stroke-linecap="round" stroke-linejoin="round"/>
</g>
</svg>
