<svg width="24" height="22" viewBox="0 0 24 22" fill="none" xmlns="http://www.w3.org/2000/svg">
<g id="fluent:sport-soccer-20-filled">
<path id="Vector" d="M12 2.81128C9.45395 2.81128 7.01215 3.69574 5.2118 5.27009C3.41145 6.84443 2.40002 8.97971 2.40002 11.2062C2.40002 13.4326 3.41145 15.5679 5.2118 17.1423C7.01215 18.7166 9.45395 19.6011 12 19.6011C14.5461 19.6011 16.9879 18.7166 18.7882 17.1423C20.5886 15.5679 21.6 13.4326 21.6 11.2062C21.6 8.97971 20.5886 6.84443 18.7882 5.27009C16.9879 3.69574 14.5461 2.81128 12 2.81128ZM8.51042 4.52174L11.4024 5.99714V7.78106L8.07962 9.82941L6.20762 9.23442L5.45642 6.59843C6.27656 5.70853 7.32209 4.99758 8.51042 4.52174ZM3.64082 11.9323L5.83322 10.2324L7.68842 10.8211L8.94242 14.2735L8.08202 15.3994H5.10242C4.28343 14.3724 3.78012 13.1785 3.64082 11.9323ZM10.0476 18.3523L9.06962 15.9955L9.92162 14.88H14.082L14.9352 15.9955L13.9572 18.3513C12.6721 18.6196 11.3328 18.6206 10.0476 18.3523ZM18.8976 15.3994H15.924L15.06 14.2714L16.29 10.8221L18.1704 10.2303L20.3592 11.9323C20.2199 13.1785 19.7166 14.3724 18.8976 15.3994ZM18.5496 6.60577L17.7984 9.23232L15.8976 9.83046L12.6012 7.78211V5.99819L15.492 4.52174C16.6824 4.99894 17.7293 5.71212 18.5496 6.60472V6.60577Z" fill="#FFFF1A"/>
</g>
</svg>
