<svg width="14" height="12" viewBox="0 0 14 12" fill="none" xmlns="http://www.w3.org/2000/svg">
<g id="Group">
<path id="Vector" d="M12.5918 1.007C12.3047 1.09724 12.2938 1.10544 8.64065 4.75856L5.04495 8.35153L3.418 6.72458C1.90589 5.21794 1.77737 5.09489 1.60784 5.0156C1.17308 4.81325 0.710966 4.87614 0.366435 5.18786C0.0929972 5.43395 -0.0409871 5.8277 0.0246379 6.18317C0.0929973 6.54958 0.0492472 6.5031 2.31878 8.76442C4.30393 10.7441 4.42698 10.8617 4.59378 10.9355C4.80706 11.0285 5.09964 11.0558 5.29651 11.0039C5.63011 10.9136 5.48792 11.0476 9.75081 6.78474C14.1641 2.36599 13.9125 2.63669 13.9809 2.24567C14.0739 1.70153 13.7321 1.1738 13.1825 1.007C13.0293 0.960517 12.7395 0.960517 12.5918 1.007Z" fill="#FFFFB8"/>
</g>
</svg>
