<svg width="27" height="20" viewBox="0 0 27 20" fill="none" xmlns="http://www.w3.org/2000/svg">
<g id="Carrito">
<path id="Carrito_2" d="M23.9953 4V2L5.47719 1.92857V3.92857M7.82456 16C6.39006 16 5.21637 16.9 5.21637 18C5.21637 19.1 6.39006 20 7.82456 20C9.25906 20 10.4327 19.1 10.4327 18C10.4327 16.9 9.25906 16 7.82456 16ZM20.8655 16C19.431 16 18.2573 16.9 18.2573 18C18.2573 19.1 19.431 20 20.8655 20C22.3 20 23.4737 19.1 23.4737 18C23.4737 16.9 22.3 16 20.8655 16ZM8.08538 12.8V12.7L9.25906 11H18.9094C19.8222 11 20.7351 10.6 21.1263 10L26.2123 3L23.9953 2L18.9094 9H9.7807L4.30351 0H0V2H2.60819L7.30292 9.6L5.47719 12C5.34678 12.3 5.21637 12.6 5.21637 13C5.21637 14.1 6.39006 15 7.82456 15H23.4737V13H8.3462C8.21579 13 8.08538 12.9 8.08538 12.8Z" fill="#FFFF1A"/>
</g>
</svg>
