<svg width="24" height="24" viewBox="0 0 24 24" fill="none" xmlns="http://www.w3.org/2000/svg">
<g id="iconoCasa">
<path id="Vector" d="M20.25 10C20.25 9.83585 20.2177 9.67331 20.1549 9.52165C20.092 9.36999 20 9.23219 19.8839 9.11612C19.7678 9.00005 19.63 8.90797 19.4784 8.84516C19.3267 8.78234 19.1642 8.75 19 8.75C18.8359 8.75 18.6733 8.78234 18.5217 8.84516C18.37 8.90797 18.2322 9.00005 18.1161 9.11612C18.0001 9.23219 17.908 9.36999 17.8452 9.52165C17.7823 9.67331 17.75 9.83585 17.75 10H20.25ZM6.25001 10C6.25001 9.66848 6.11832 9.35054 5.8839 9.11612C5.64948 8.8817 5.33153 8.75 5.00001 8.75C4.66849 8.75 4.35055 8.8817 4.11613 9.11612C3.88171 9.35054 3.75001 9.66848 3.75001 10H6.25001ZM20.116 12.884C20.3505 13.1185 20.6684 13.2502 21 13.2502C21.3316 13.2502 21.6496 13.1185 21.884 12.884C22.1185 12.6496 22.2502 12.3316 22.2502 12C22.2502 11.6684 22.1185 11.3505 21.884 11.116L20.116 12.884ZM12 3L12.884 2.116C12.7679 1.9999 12.6301 1.90779 12.4784 1.84495C12.3268 1.78211 12.1642 1.74977 12 1.74977C11.8358 1.74977 11.6733 1.78211 11.5216 1.84495C11.3699 1.90779 11.2321 1.9999 11.116 2.116L12 3ZM2.11601 11.116C1.88156 11.3505 1.74985 11.6684 1.74985 12C1.74985 12.3316 1.88156 12.6496 2.11601 12.884C2.35046 13.1185 2.66845 13.2502 3.00001 13.2502C3.33158 13.2502 3.64956 13.1185 3.88401 12.884L2.11601 11.116ZM7.00001 22.25H17V19.75H7.00001V22.25ZM20.25 19V10H17.75V19H20.25ZM6.25001 19V10H3.75001V19H6.25001ZM21.884 11.116L12.884 2.116L11.116 3.884L20.116 12.884L21.884 11.116ZM11.116 2.116L2.11601 11.116L3.88401 12.884L12.884 3.884L11.116 2.116ZM17 22.25C17.862 22.25 18.6886 21.9076 19.2981 21.2981C19.9076 20.6886 20.25 19.862 20.25 19H17.75C17.75 19.1989 17.671 19.3897 17.5303 19.5303C17.3897 19.671 17.1989 19.75 17 19.75V22.25ZM7.00001 19.75C6.8011 19.75 6.61033 19.671 6.46968 19.5303C6.32903 19.3897 6.25001 19.1989 6.25001 19H3.75001C3.75001 19.862 4.09242 20.6886 4.70192 21.2981C5.31141 21.9076 6.13806 22.25 7.00001 22.25V19.75Z" fill="#FFFF1A"/>
</g>
</svg>
